<svg width="40" height="40" viewBox="0 0 40 40" fill="none" xmlns="http://www.w3.org/2000/svg">
<circle cx="20" cy="20" r="19" stroke="#BDBDBD" stroke-width="2"/>
<path d="M20 30C19.699 29.9996 19.405 29.9086 19.1563 29.7389C15.4724 27.2381 13.8772 25.5234 12.9974 24.4514C11.1224 22.1663 10.2247 19.8202 10.25 17.2795C10.2796 14.3681 12.6153 12 15.4569 12C17.5232 12 18.9543 13.1639 19.7877 14.1333C19.8141 14.1637 19.8467 14.1881 19.8833 14.2048C19.92 14.2215 19.9598 14.2301 20 14.2301C20.0403 14.2301 20.0801 14.2215 20.1167 14.2048C20.1534 14.1881 20.186 14.1637 20.2124 14.1333C21.0458 13.163 22.4769 12 24.5432 12C27.3847 12 29.7205 14.3681 29.75 17.28C29.7753 19.8211 28.8768 22.1672 27.0027 24.4519C26.1228 25.5239 24.5277 27.2386 20.8438 29.7394C20.5951 29.9089 20.3011 29.9998 20 30Z" fill="#BDBDBD"/>
</svg>
