<svg width="81" height="74" viewBox="0 0 81 74" fill="none" xmlns="http://www.w3.org/2000/svg">
<path opacity="0.8" d="M74.0436 22.9596C73.3952 29.5386 72.277 35.0175 70.7429 39.5228C69.6785 42.6504 68.4135 45.3107 66.965 47.5451C64.9561 50.646 62.5974 52.9242 59.9377 54.4965C59.4703 53.944 58.7632 53.5862 57.9875 53.5862C57.1703 53.5862 56.4411 54 56.0154 54.6937L54.7479 56.6117C54.1876 56.7528 53.615 56.8721 53.0351 56.967L51.2343 54.5209C50.8207 53.9538 50.1944 53.6154 49.4921 53.5765C49.5386 53.4013 49.5631 53.2187 49.5631 53.0313V51.4541C49.5631 50.7604 49.2425 50.0546 48.5574 49.5897C48.3592 49.4534 48.1317 49.339 47.8723 49.2513C47.7402 48.5893 47.3218 48.0198 46.6807 47.6498C45.8121 47.1508 44.7991 46.8977 43.6662 46.8977C42.8979 46.8977 42.1541 47.0389 41.4567 47.3139C41.2463 47.3967 41.0407 47.4916 40.8401 47.5987C40.6615 47.6936 40.4853 47.7958 40.3165 47.9102C40.1844 47.9978 40.0571 48.0903 39.9299 48.1877V44.3469C39.9299 44.2812 39.925 44.0767 39.8614 43.8138C40.0155 42.906 40.2235 42.0224 40.4902 41.1608C42.0929 35.9497 45.7582 31.6075 52.1298 28.4117C57.4345 25.7489 64.616 23.8796 74.0436 22.9596Z" fill="url(#paint0_linear_904_5738)"/>
<g opacity="0.8">
<path opacity="0.8" d="M41.4567 47.3139C41.2463 47.3967 41.0408 47.4916 40.8401 47.5987C40.6615 47.6936 40.4853 47.7958 40.3165 47.9102C40.1844 47.9978 40.0571 48.0903 39.9299 48.1877V44.3469C39.9299 44.2812 39.925 44.0767 39.8614 43.8138C39.6852 43.1031 39.0808 41.9567 36.9961 41.9567C36.6511 41.9567 36.3379 41.9932 36.0566 42.0614C35.2613 42.2488 34.7157 42.6748 34.4 43.1908C34.1798 43.551 34.0746 43.9526 34.0746 44.3469V48.7645C33.7003 48.6672 33.3455 48.6428 33.0812 48.6428C32.7607 48.6428 32.3007 48.6794 31.8407 48.84C31.777 48.8619 31.7134 48.8887 31.6498 48.9155C30.7396 49.3049 30.1768 50.1227 30.1768 51.0476L30.1646 57.2323C29.0415 57.1496 27.9453 56.9962 26.8858 56.765L26.8516 50.7117C26.8516 49.7966 26.2814 48.9812 25.3639 48.5966C25.3052 48.5723 25.2611 48.5504 25.2024 48.5333L25.1999 48.5309H25.1902C24.7277 48.3702 24.2677 48.3337 23.9472 48.3337C23.563 48.3337 23.2351 48.3751 22.944 48.453H22.9366C21.9579 48.7013 21.4514 49.3146 21.2238 49.9109C20.0273 48.9301 18.5666 48.4214 16.9101 48.4214C16.1662 48.4214 15.4664 48.5163 14.8082 48.7013H14.8058C14.5366 48.3289 14.2699 47.9419 14.0106 47.5403V47.5378C12.5645 45.3034 11.3019 42.648 10.2375 39.5203C10.2351 39.5155 10.2327 39.5106 10.2327 39.5057C8.70094 35.0029 7.58518 29.5289 6.93677 22.9596C16.384 23.8821 23.5777 25.7562 28.8849 28.4287C35.2369 31.6245 38.89 35.9594 40.4902 41.1608C41.0114 42.8524 41.3148 44.6341 41.4225 46.4985V46.5058C41.4396 46.7736 41.4518 47.0437 41.4567 47.3139Z" fill="url(#paint1_linear_904_5738)"/>
</g>
<path opacity="0.8" d="M40.5118 56.3196C40.5118 56.3218 40.5096 56.3218 40.5096 56.3218C40.5096 56.3218 40.5073 56.3218 40.5073 56.3196C40.5096 56.3196 40.5096 56.3196 40.5118 56.3196Z" fill="url(#paint2_linear_904_5738)"/>
<path opacity="0.8" d="M40.5073 56.3197C40.4975 56.3148 40.4878 56.3075 40.478 56.3002C40.4829 56.2808 40.4853 56.2613 40.4902 56.2418C40.4951 56.2686 40.5024 56.2929 40.5073 56.3197Z" fill="url(#paint3_linear_904_5738)"/>
<path opacity="0.8" d="M53.341 39.4133C53.341 39.4352 53.3361 39.4571 53.3336 39.4765C53.2945 39.7394 53.2504 39.9999 53.2015 40.2579C52.9324 41.6598 52.5091 42.9961 51.9438 44.2788V44.2812C51.5964 45.0747 51.1927 45.8462 50.7351 46.5983C50.1063 47.6352 49.3796 48.6307 48.5574 49.5897C48.3592 49.4534 48.1317 49.339 47.8723 49.2514C47.7402 48.5893 47.3218 48.0198 46.6807 47.6498C45.8121 47.1509 44.7991 46.8977 43.6662 46.8977C42.8979 46.8977 42.1541 47.0389 41.4567 47.3139C41.2463 47.3967 41.0407 47.4916 40.8401 47.5987C40.6615 47.6936 40.4853 47.7959 40.3165 47.9103C40.1844 47.9979 40.0571 48.0904 39.9299 48.1877V44.3469C39.9299 44.2812 39.925 44.0768 39.8614 43.8139C39.6852 43.1032 39.0808 41.9568 36.9961 41.9568C36.6511 41.9568 36.3379 41.9933 36.0565 42.0614C35.2613 42.2488 34.7157 42.6748 34.4 43.1908C34.1798 43.551 34.0746 43.9526 34.0746 44.3469V48.7646C33.7002 48.6672 33.3454 48.6429 33.0812 48.6429C32.7607 48.6429 32.3007 48.6794 31.8406 48.84C31.1213 47.9273 30.4827 46.9805 29.9297 45.9972C29.614 45.4325 29.3253 44.8556 29.0659 44.2666C28.4249 42.8087 27.9673 41.2777 27.7128 39.664C27.7031 39.6031 27.6933 39.5398 27.6835 39.4765C27.6835 39.4717 27.681 39.4668 27.6835 39.4619C27.1892 36.142 27.544 32.4838 28.8849 28.4288C30.742 22.8112 34.493 16.4342 40.5098 9.14441C46.5217 16.4268 50.2702 22.799 52.1298 28.4117C52.7048 30.152 53.0987 31.8168 53.3214 33.4135C53.6199 35.5311 53.6175 37.5269 53.341 39.4133Z" fill="url(#paint4_linear_904_5738)"/>
<g opacity="0.7">
<path opacity="0.7" d="M40.5098 6.21636C42.2354 6.21636 43.6344 4.82478 43.6344 3.10818C43.6344 1.39158 42.2354 0 40.5098 0C38.7841 0 37.3852 1.39158 37.3852 3.10818C37.3852 4.82478 38.7841 6.21636 40.5098 6.21636Z" fill="url(#paint5_linear_904_5738)"/>
</g>
<g opacity="0.7">
<path opacity="0.7" d="M77.0753 22.2003C78.3009 22.2003 79.2945 21.2119 79.2945 19.9926C79.2945 18.7734 78.3009 17.785 77.0753 17.785C75.8496 17.785 74.856 18.7734 74.856 19.9926C74.856 21.2119 75.8496 22.2003 77.0753 22.2003Z" fill="url(#paint6_linear_904_5738)"/>
</g>
<g opacity="0.7">
<path opacity="0.7" d="M3.92227 22.1856C5.14794 22.1856 6.14154 21.1972 6.14154 19.978C6.14154 18.7588 5.14794 17.7704 3.92227 17.7704C2.69659 17.7704 1.70299 18.7588 1.70299 19.978C1.70299 21.1972 2.69659 22.1856 3.92227 22.1856Z" fill="url(#paint7_linear_904_5738)"/>
</g>
<path opacity="0.9" d="M39.9299 47.0852V48.1878C40.0571 48.0904 40.1844 47.9979 40.3165 47.9103C40.1941 47.6304 40.0645 47.3554 39.9299 47.0852ZM33.3039 40.3407C33.299 40.3382 33.2941 40.3358 33.2892 40.3334C33.0323 40.2214 32.7729 40.1192 32.5062 40.0267C32.5062 40.0267 32.5037 40.0267 32.5013 40.0243C32.0217 39.8563 31.5275 39.7225 31.021 39.6227C30.331 39.4864 29.6189 39.4158 28.8824 39.4158C28.5227 39.4036 28.1264 39.4231 27.6835 39.462C27.659 39.4645 27.6321 39.4669 27.6052 39.4693H27.5954C25.6551 39.6567 22.8412 40.2214 18.4785 40.1873C18.3586 40.1873 18.2387 40.1873 18.1188 40.1849C15.9069 40.1533 13.3059 39.9658 10.2327 39.5058C8.41956 39.2357 6.44251 38.8681 4.28196 38.3838C4.08377 38.3375 3.88313 38.2913 3.68004 38.245C3.32769 38.1623 2.9778 38.1452 2.64258 38.1866C2.59854 38.1915 2.55449 38.1964 2.5129 38.2037C2.46152 38.211 2.41013 38.2207 2.35875 38.2329C2.23641 38.2572 2.11651 38.2913 2.00151 38.3327C1.87672 38.374 1.75683 38.4251 1.63938 38.486C1.58065 38.5152 1.52438 38.5468 1.4681 38.5809C0.599474 39.0896 0 40.0267 0 41.1366V41.47C0 44.5685 0.738944 47.4576 2.01864 49.9062C3.23471 48.991 4.84718 48.4823 6.56975 48.4823C8.48317 48.4823 10.3574 49.2174 11.5833 50.4514C11.6225 50.4903 11.6616 50.5293 11.6983 50.5707C12.1999 50.0595 12.7749 49.6263 13.4184 49.2685C13.854 49.0299 14.3164 48.8401 14.8058 48.7014H14.8082C15.4664 48.5164 16.1662 48.4215 16.9101 48.4215C18.5666 48.4215 20.0273 48.9302 21.2238 49.911C21.4514 49.3147 21.9579 48.7014 22.9366 48.4531H22.944C23.2351 48.3752 23.563 48.3338 23.9472 48.3338C24.2677 48.3338 24.7277 48.3703 25.1902 48.531H25.1999L25.2024 48.5334C25.2611 48.5505 25.3052 48.5724 25.3639 48.5967C26.2814 48.9813 26.8516 49.7966 26.8516 50.7118L26.8858 56.7651L26.8907 57.4636H30.1646V57.2324L30.1768 51.0477C30.1768 50.1228 30.7396 49.305 31.6498 48.9156C31.7134 48.8888 31.777 48.862 31.8407 48.8401C32.3007 48.6795 32.7607 48.6429 33.0812 48.6429C33.3455 48.6429 33.7002 48.6673 34.0746 48.7646V44.347C34.0746 43.9527 34.1798 43.5511 34.4 43.1909C34.7157 42.6749 35.2613 42.2489 36.0565 42.0615C35.2099 41.3556 34.2899 40.7764 33.3039 40.3407ZM40.4902 56.2418C40.4853 56.2613 40.4829 56.2807 40.478 56.3002C40.4878 56.3075 40.4976 56.3148 40.5073 56.3197C40.5024 56.2929 40.4951 56.2686 40.4902 56.2418ZM40.5073 56.3197C40.5073 56.3221 40.5098 56.3221 40.5098 56.3221C40.5098 56.3221 40.5122 56.3221 40.5122 56.3197C40.5098 56.3197 40.5098 56.3197 40.5073 56.3197ZM79.5343 38.5809C78.9006 38.2037 78.1201 38.0601 77.3249 38.245C76.718 38.3862 76.1259 38.5176 75.5509 38.6418C75.1178 38.7343 74.6921 38.8219 74.2761 38.9046C73.9972 38.9606 73.7231 39.0117 73.454 39.0628C73.3194 39.0872 73.1848 39.114 73.0502 39.1383C72.6514 39.2113 72.2599 39.2795 71.8733 39.3428C71.7436 39.3671 71.6164 39.3866 71.4916 39.406C71.3668 39.4255 71.2396 39.4474 71.1148 39.4669C70.99 39.4864 70.8677 39.5058 70.7429 39.5229C70.5373 39.5545 70.3343 39.5862 70.1336 39.6129C69.933 39.6421 69.7348 39.6689 69.539 39.6932C69.3433 39.72 69.15 39.7444 68.9567 39.7687C68.46 39.832 67.9804 39.8855 67.5131 39.9293C67.3687 39.9439 67.2268 39.9585 67.0849 39.9707C66.6077 40.0145 66.1477 40.051 65.6999 40.0802C65.5409 40.09 65.3843 40.0997 65.2301 40.1095C65.0711 40.1192 64.917 40.1265 64.7628 40.1338C64.6087 40.1411 64.457 40.1484 64.3077 40.1533C64.0067 40.1654 63.7107 40.1727 63.4244 40.1776C63.3069 40.18 63.1919 40.1825 63.0769 40.1825C62.7589 40.1898 62.4505 40.1898 62.152 40.1849C62.0248 40.1849 61.8976 40.1825 61.7728 40.18C61.6896 40.18 61.6088 40.1776 61.5305 40.1752C61.4425 40.1727 61.3568 40.1703 61.2712 40.1679C61.1268 40.163 60.9849 40.1581 60.8454 40.1533C60.7745 40.1508 60.7035 40.1484 60.635 40.1435C59.9939 40.1168 59.3993 40.0754 58.8439 40.0243C58.7534 40.017 58.6653 40.0097 58.5772 39.9999C58.313 39.9756 58.056 39.9488 57.8089 39.922C57.6254 39.9001 57.4468 39.8807 57.273 39.8588C56.7445 39.7955 56.2576 39.7273 55.8074 39.6665C55.6557 39.647 55.5113 39.6251 55.3694 39.6056C54.8017 39.5302 54.2928 39.4669 53.8328 39.4352C53.6615 39.4231 53.5 39.4158 53.341 39.4133C53.2235 39.4109 53.1085 39.4109 52.996 39.4158C48.347 39.4158 43.9158 42.2246 41.4225 46.4986V46.5059C41.2145 46.8613 41.0187 47.2215 40.8401 47.5988C41.0407 47.4917 41.2463 47.3968 41.4567 47.314C42.1541 47.039 42.8979 46.8978 43.6662 46.8978C44.7991 46.8978 45.8121 47.1509 46.6807 47.6499C47.3218 48.0199 47.7402 48.5894 47.8723 49.2514C48.1317 49.3391 48.3592 49.4535 48.5574 49.5898C49.2425 50.0547 49.5631 50.7605 49.5631 51.4542V53.0314C49.5631 53.2188 49.5386 53.4014 49.4921 53.5766C50.1944 53.6155 50.8207 53.9539 51.2343 54.521L53.0351 56.9671L53.3997 57.4636H54.1851L54.7479 56.6118L56.0154 54.6938C56.4411 54.0001 57.1703 53.5863 57.9875 53.5863C58.7632 53.5863 59.4703 53.9441 59.9377 54.4966C59.9695 54.5307 59.9988 54.5672 60.0257 54.6037C61.2663 53.837 62.7197 53.4403 64.3273 53.4403C65.8174 53.4403 67.8703 53.7932 69.4044 55.4118C70.6597 54.1486 72.5535 53.4257 74.6089 53.4257C75.3258 53.4257 76.0378 53.5279 76.7107 53.7226C79.4071 50.7897 81 46.3891 81 41.47V41.139C81 40.0316 80.4005 39.0921 79.5343 38.5809Z" fill="url(#paint8_linear_904_5738)"/>
<path opacity="0.7" d="M34.4 43.1909C34.1798 43.5511 34.0746 43.9527 34.0746 44.347V46.0338C33.0788 46.0362 31.6131 46.0289 29.9297 45.9972C29.4061 45.9875 28.8629 45.9753 28.305 45.9607C23.4994 45.8342 17.7028 45.4983 15.8066 44.6269C14.0889 43.8407 14.0889 42.855 14.5195 42.0664C14.982 41.2169 15.8751 40.6814 16.844 40.5938L24.5075 39.8953C24.5075 39.8953 25.9511 39.7225 27.7128 39.664C28.4591 39.6397 29.2617 39.6373 30.0373 39.6786C30.0398 39.6786 30.0398 39.6786 30.0422 39.6786C30.9451 39.7225 31.8113 39.8271 32.5013 40.0243C32.5037 40.0267 32.5062 40.0267 32.5062 40.0267C32.8023 40.1119 33.0665 40.2117 33.2892 40.3334C33.2941 40.3358 33.299 40.3383 33.3039 40.3407C33.3308 40.3577 33.3577 40.3723 33.3822 40.3869L34.4 43.1909Z" fill="url(#paint9_linear_904_5738)"/>
<path d="M79.5343 38.5809C79.1918 45.5152 69.769 48.3995 53.867 48.5674L49.9692 39.8855C50.6592 39.7492 51.3713 39.552 52.1078 39.552C52.4748 39.5399 53.0669 39.4985 53.8328 39.4352C57.2094 39.6689 63.072 41.5722 77.3249 38.245C78.1201 38.0624 78.8982 38.206 79.5343 38.5809Z" fill="url(#paint10_linear_904_5738)"/>
<path d="M31.0332 39.8855L29.0659 44.2666L28.305 45.9607L27.1354 48.5675C26.4796 48.5602 25.8361 48.548 25.2024 48.5334L25.1999 48.531H25.1902C24.7277 48.3703 24.2677 48.3338 23.9472 48.3338C23.563 48.3338 23.2351 48.3752 22.944 48.4531H22.9366C19.6065 48.2973 16.6189 48.0004 14.0106 47.5403V47.5379C6.15868 46.153 1.703 43.3077 1.4681 38.5809C1.52438 38.5468 1.58066 38.5152 1.63938 38.486C1.75683 38.4275 1.87672 38.3764 2.00151 38.3326C2.11651 38.2912 2.23641 38.2572 2.35875 38.2328C2.41013 38.2207 2.46152 38.2109 2.5129 38.2036C2.5545 38.1963 2.59854 38.1915 2.64258 38.1866C2.9778 38.1452 3.3277 38.1622 3.68004 38.245C3.88313 38.2912 4.08377 38.3375 4.28196 38.3837C6.45964 38.8778 8.43668 39.2478 10.2376 39.5204C13.3646 39.9926 15.9534 40.1703 18.1188 40.1849C18.2387 40.1873 18.3586 40.1873 18.4785 40.1873C22.7507 40.1849 25.3296 39.5618 27.1696 39.4352C27.3189 39.4474 27.4608 39.4596 27.5954 39.4693H27.6052C27.6321 39.4717 27.6566 39.4742 27.6835 39.4766C28.2022 39.5155 28.6133 39.5423 28.8947 39.552C29.2813 39.552 29.663 39.6056 30.0373 39.6786C30.0398 39.6786 30.0398 39.6786 30.0422 39.6786C30.3774 39.7443 30.7078 39.8222 31.0332 39.8855Z" fill="url(#paint11_linear_904_5738)"/>
<path opacity="0.7" d="M45.5576 46.6227C45.5576 46.6227 61.7532 46.7979 65.1861 45.2207C66.9013 44.4321 66.9013 43.4488 66.4731 42.6602C66.0107 41.8083 65.1176 41.2753 64.1486 41.1876L56.4852 40.4891C56.4852 40.4891 49.7662 39.681 47.608 40.9807L45.5576 46.6227Z" fill="url(#paint12_linear_904_5738)"/>
<path d="M40.4902 56.2418C40.4951 56.2686 40.5024 56.2929 40.5073 56.3197C40.4975 56.3148 40.4878 56.3075 40.478 56.3002C40.4829 56.2808 40.4853 56.2613 40.4902 56.2418Z" fill="#842D2D"/>
<path d="M40.5118 56.3197C40.5118 56.3219 40.5096 56.3219 40.5096 56.3219C40.5096 56.3219 40.5073 56.3219 40.5073 56.3197C40.5096 56.3197 40.5096 56.3197 40.5118 56.3197Z" fill="#842D2D"/>
<path d="M1.75682 61.431C1.75682 61.1949 1.9648 61.0343 2.20214 61.0343C2.48353 61.0343 2.63034 61.1657 2.64747 61.431C2.72087 62.3875 3.12215 63.125 3.84642 63.641C4.57068 64.1424 5.37079 64.3931 6.27368 64.4077C7.07379 64.4077 7.76869 64.1862 8.36083 63.7457C8.96764 63.3027 9.26371 62.6261 9.26371 61.6987C9.26371 60.7568 8.93828 60.0777 8.27274 59.681C7.6072 59.2842 6.83645 58.9605 5.93357 58.7098C4.64653 58.3423 3.69716 57.9285 3.09034 57.4734C2.20214 56.7967 1.75682 55.7647 1.75682 54.3944C1.69809 51.7146 4.24525 50.4319 6.56974 50.4319C8.77679 50.4319 11.2334 51.773 11.204 54.3335C11.204 54.5842 10.9961 54.7303 10.7587 54.7303C10.4773 54.7303 10.3305 54.5988 10.3134 54.3335C10.24 53.377 9.83871 52.6541 9.11445 52.1381C8.39019 51.6221 7.59007 51.3714 6.68719 51.3714C5.88708 51.3714 5.19217 51.5929 4.58536 52.0334C3.99323 52.4764 3.69716 53.1531 3.69716 54.0804C3.69716 55.0224 4.02259 55.7014 4.68813 56.0982C5.35367 56.4949 6.12442 56.8186 7.0273 57.0693C8.31434 57.4368 9.26371 57.8506 9.87052 58.3058C10.7587 58.9824 11.204 60.0144 11.204 61.3847C11.2628 64.0645 8.71562 65.3472 6.39112 65.3472C4.18653 65.3472 1.72746 64.0232 1.75682 61.431Z" fill="#333333"/>
<path d="M12.496 62.9181C11.5344 61.4747 11.0597 59.7223 11.0597 57.6753C11.0597 56.7188 11.1918 55.7914 11.4438 54.8909C11.9772 53.0508 12.9535 51.7535 14.3605 50.9746C15.0847 50.5779 15.9289 50.371 16.9076 50.371C18.6546 50.371 20.0322 51.1085 21.0379 52.5956C21.9554 53.9659 22.4154 55.6283 22.4154 57.5585C22.4154 59.6493 21.9554 61.4309 21.0232 62.9181C20.0004 64.5537 18.6106 65.3618 16.8489 65.3618C15.0138 65.3618 13.5628 64.5513 12.496 62.9181ZM21.3951 57.6607C21.3951 54.5671 20.1227 51.4322 17.4263 51.4614C15.4713 51.4614 14.1696 52.6978 13.5187 54.5258C13.164 55.4969 12.9853 56.5435 12.9853 57.6485C12.9853 58.7098 13.1346 59.7247 13.4307 60.6813C13.7414 61.7133 14.2308 62.5822 14.8669 63.2734C15.5178 63.9647 16.3179 64.3055 17.2795 64.3055C19.9735 64.3614 21.3951 61.0756 21.3951 57.6607Z" fill="#333333"/>
<path d="M32.1489 65.0672L32.1196 62.1367C31.2461 64.2421 29.7217 65.2887 27.5734 65.2887C26.3891 65.2887 25.337 64.9212 24.4047 64.1983C23.4872 63.4779 23.0271 62.3582 23.0125 60.8394L23.0271 50.7214C23.0271 50.4269 23.3379 50.2784 23.9447 50.2784C24.4341 50.2784 24.8916 50.4269 24.8916 50.7214L24.9504 60.8394C24.9504 63.2685 26.3426 64.2275 27.8523 64.2275C29.1393 64.2275 30.1915 63.6093 31.0063 62.3728C31.7477 61.2532 32.1171 60.0168 32.1171 58.6756L32.1318 51.0476C32.1318 50.7385 32.5918 50.59 33.0787 50.59C33.5975 50.59 34.055 50.7531 34.055 51.0476L34.0403 65.0672C34.0403 65.2303 33.7149 65.3179 33.0787 65.3179C32.4597 65.3179 32.1489 65.2303 32.1489 65.0672Z" fill="#333333"/>
<path d="M38.5645 65.1866C36.8909 65.1866 36.0468 64.0669 36.0321 61.8277V44.3469C36.0321 44.0524 36.5068 43.9039 36.9937 43.9039C37.6445 43.9039 37.97 44.05 37.97 44.3469V61.7839C37.97 63.4487 38.3101 64.2884 39.0074 64.2884L39.5996 64.303C39.8809 64.303 40.0131 64.5245 40.0131 64.7606C40.0131 65.0405 39.8809 65.1866 39.6142 65.1866H38.5645Z" fill="#333333"/>
<path d="M39.416 73.557L39.4601 56.7382V55.8255L39.4748 54.0876C39.4895 52.1867 39.9201 50.8334 40.7618 50.0375C41.606 49.2416 42.5823 48.8448 43.6638 48.8448C44.4492 48.8448 45.1294 49.0079 45.6922 49.3316C45.8708 49.4339 45.9589 49.5531 45.9589 49.7138C45.9589 49.8014 45.9295 49.9061 45.8708 50.0083C45.768 50.186 45.6188 50.2736 45.4573 50.2736C45.3545 50.2736 45.2346 50.2444 45.1025 50.1714C44.7624 49.9937 44.3782 49.9061 43.9476 49.9061C42.2005 49.9061 41.327 51.3056 41.327 54.0876V64.2714H43.2062C43.5023 64.2714 43.6515 64.4198 43.6515 64.6973C43.6515 65.021 43.5341 65.1841 43.282 65.1841H41.327L41.283 73.557C41.283 73.8515 40.9429 73.9999 40.2773 73.9999C39.6974 73.9999 39.416 73.8515 39.416 73.557Z" fill="#333333"/>
<path d="M45.68 53.0313V51.4565C45.68 51.1474 46.1546 50.9989 46.6416 50.9989C47.1309 51.0135 47.6032 51.162 47.6032 51.4565V53.0313C47.6032 53.3258 47.1285 53.4743 46.6416 53.4743C46.1546 53.4718 45.68 53.3258 45.68 53.0313ZM45.6946 70.0107V55.991C45.6946 55.6819 46.1546 55.5334 46.6416 55.5334C47.1309 55.5334 47.6032 55.6965 47.6032 55.991V70.0107C47.6032 70.1737 47.2777 70.2614 46.6416 70.2614C46.1228 70.2614 45.6946 70.1883 45.6946 70.0107Z" fill="#333333"/>
<path d="M57.8383 70.1007L53.4266 64.0474L49.3991 70.0569C49.311 70.1884 49.1911 70.2638 49.059 70.2638C48.7189 70.2638 48.4962 70.0277 48.4962 69.7916C48.4962 69.6431 49.9179 67.4355 52.7611 63.1493C49.6071 58.8339 48.0387 56.6555 48.0387 56.6092C48.0387 56.3877 48.2026 56.1516 48.5134 55.9034C48.8241 55.6527 49.1055 55.5212 49.3575 55.5212C49.4897 55.5212 49.5802 55.5651 49.6536 55.6697L53.9037 61.4431L57.6792 55.7281C57.7526 55.5967 57.8578 55.5358 57.99 55.5358C58.3007 55.5358 58.5674 55.7865 58.5674 56.0372C58.5674 56.2295 57.2339 58.3349 54.5546 62.3558C57.8847 66.9074 59.5437 69.205 59.5437 69.2488C59.5437 69.6918 58.6115 70.3101 58.1368 70.3101C58.0316 70.3052 57.941 70.2322 57.8383 70.1007Z" fill="#333333"/>
<path d="M57.8578 62.8401C57.8578 60.7932 58.4059 59.0699 59.5021 57.6704C60.6864 56.154 62.3013 55.3873 64.3297 55.3873C67.8385 55.3873 69.5855 57.685 69.5855 62.2803C69.5855 62.5164 69.3188 62.7671 69.0668 62.7671H59.7835C59.7835 65.9629 61.3984 69.1149 64.6551 69.1149C66.6542 69.1149 68.5481 67.8201 68.5481 65.5224C68.5481 65.2279 68.6802 65.0794 68.9469 65.0648C69.2283 65.0648 69.4363 65.2279 69.4363 65.5224C69.4363 67.0972 68.9028 68.3214 67.8213 69.1758C66.8597 69.9279 65.7342 70.2954 64.4153 70.2954C60.0771 70.2905 57.8578 66.6104 57.8578 62.8401ZM68.5162 61.9566C68.4869 59.4983 67.7161 56.3463 64.6086 56.4193C61.5892 56.3901 60.0942 59.3352 59.8128 61.9566H68.5162Z" fill="#333333"/>
<path d="M69.7959 66.3744C69.7959 66.1383 70.0039 65.9776 70.2413 65.9776C70.5226 65.9776 70.6695 66.1091 70.6866 66.3744C70.76 67.3309 71.1613 68.0684 71.8855 68.5844C72.6098 69.0858 73.4099 69.3365 74.3128 69.3511C75.1129 69.3511 75.8078 69.1296 76.3999 68.6891C77.0068 68.2461 77.3028 67.5694 77.3028 66.6421C77.3028 65.7001 76.9774 65.0211 76.3119 64.6243C75.6463 64.2276 74.8756 63.9039 73.9727 63.6532C72.6856 63.2856 71.7363 62.8719 71.1295 62.4167C70.2413 61.7401 69.7959 60.7081 69.7959 59.3377C69.7372 56.6579 72.2844 55.3752 74.6089 55.3752C76.8159 55.3752 79.2725 56.7164 79.2432 59.2769C79.2432 59.5276 79.0352 59.6736 78.7978 59.6736C78.5165 59.6736 78.3697 59.5422 78.3525 59.2769C78.2791 58.3203 77.8778 57.5975 77.1536 57.0815C76.4293 56.5655 75.6292 56.3148 74.7263 56.3148C73.9262 56.3148 73.2313 56.5362 72.6245 56.9768C72.0323 57.4198 71.7363 58.0964 71.7363 59.0238C71.7363 59.9657 72.0617 60.6448 72.7272 61.0415C73.3928 61.4383 74.1635 61.762 75.0664 62.0127C76.3535 62.3802 77.3028 62.794 77.9096 63.2491C78.7978 63.9258 79.2432 64.9578 79.2432 66.3281C79.3019 69.0079 76.7547 70.2906 74.4302 70.2906C72.2232 70.2906 69.7666 68.9665 69.7959 66.3744Z" fill="#333333"/>
<mask id="mask0_904_5738" style="mask-type:alpha" maskUnits="userSpaceOnUse" x="0" y="0" width="81" height="74">
<path d="M74.0436 22.9596C73.3952 29.5386 72.277 35.0175 70.7429 39.5228C69.6785 42.6504 68.4135 45.3108 66.965 47.5452C64.9561 50.646 62.5974 52.9242 59.9377 54.4966C59.4703 53.9441 58.7632 53.5863 57.9875 53.5863C57.1703 53.5863 56.4411 54 56.0154 54.6937L54.7479 56.6117C54.1876 56.7529 53.615 56.8721 53.0351 56.9671L51.2343 54.5209C50.8208 53.9538 50.1944 53.6155 49.4921 53.5765C49.5386 53.4013 49.5631 53.2187 49.5631 53.0313V51.4541C49.5631 50.7604 49.2425 50.0546 48.5574 49.5897C48.3592 49.4534 48.1317 49.339 47.8723 49.2514C47.7402 48.5893 47.3218 48.0198 46.6807 47.6498C45.8121 47.1509 44.7991 46.8977 43.6662 46.8977C42.8979 46.8977 42.1541 47.0389 41.4567 47.3139C41.2463 47.3967 41.0408 47.4916 40.8401 47.5987C40.6615 47.6936 40.4853 47.7959 40.3165 47.9103C40.1844 47.9979 40.0571 48.0904 39.9299 48.1877V44.3469C39.9299 44.2812 39.925 44.0767 39.8614 43.8139C40.0155 42.906 40.2235 42.0225 40.4902 41.1609C42.0929 35.9497 45.7583 31.6075 52.1298 28.4117C57.4345 25.749 64.616 23.8797 74.0436 22.9596Z" fill="#333333"/>
<path d="M41.4567 47.3139C41.2463 47.3967 41.0408 47.4916 40.8401 47.5987C40.6615 47.6936 40.4853 47.7959 40.3165 47.9103C40.1844 47.9979 40.0571 48.0904 39.9299 48.1877V44.3469C39.9299 44.2812 39.925 44.0767 39.8614 43.8139C39.6852 43.1032 39.0808 41.9568 36.9961 41.9568C36.6511 41.9568 36.3379 41.9933 36.0566 42.0614C35.2613 42.2488 34.7157 42.6748 34.4 43.1908C34.1798 43.551 34.0746 43.9526 34.0746 44.3469V48.7646C33.7003 48.6672 33.3455 48.6429 33.0812 48.6429C32.7607 48.6429 32.3007 48.6794 31.8407 48.84C31.777 48.8619 31.7134 48.8887 31.6498 48.9155C30.7396 49.3049 30.1768 50.1227 30.1768 51.0476L30.1646 57.2324C29.0415 57.1496 27.9453 56.9963 26.8858 56.765L26.8516 50.7118C26.8516 49.7966 26.2815 48.9812 25.3639 48.5966C25.3052 48.5723 25.2611 48.5504 25.2024 48.5333L25.1999 48.5309H25.1902C24.7277 48.3703 24.2677 48.3338 23.9472 48.3338C23.563 48.3338 23.2351 48.3751 22.944 48.453H22.9366C21.9579 48.7013 21.4514 49.3147 21.2238 49.911C20.0273 48.9301 18.5666 48.4214 16.9101 48.4214C16.1662 48.4214 15.4664 48.5163 14.8082 48.7013H14.8058C14.5366 48.3289 14.2699 47.9419 14.0106 47.5403V47.5379C12.5645 45.3035 11.3019 42.648 10.2376 39.5204C10.2351 39.5155 10.2327 39.5106 10.2327 39.5058C8.70094 35.0029 7.58518 29.5289 6.93677 22.9596C16.384 23.8821 23.5777 25.7563 28.8849 28.4288C35.2369 31.6246 38.89 35.9595 40.4902 41.1609C41.0114 42.8525 41.3148 44.6341 41.4225 46.4985V46.5059C41.4396 46.7736 41.4518 47.0438 41.4567 47.3139Z" fill="#333333"/>
<path d="M40.5118 56.3196C40.5118 56.3218 40.5096 56.3218 40.5096 56.3218C40.5096 56.3218 40.5073 56.3218 40.5073 56.3196C40.5096 56.3196 40.5096 56.3196 40.5118 56.3196Z" fill="#333333"/>
<path d="M40.5073 56.3196C40.4975 56.3148 40.4878 56.3075 40.478 56.3002C40.4829 56.2807 40.4853 56.2612 40.4902 56.2418C40.4951 56.2685 40.5024 56.2929 40.5073 56.3196Z" fill="#333333"/>
<path d="M53.341 39.4133C53.341 39.4352 53.3361 39.4571 53.3336 39.4766C53.2945 39.7394 53.2504 39.9999 53.2015 40.2579C52.9324 41.6598 52.5091 42.9961 51.9438 44.2788V44.2812C51.5964 45.0747 51.1927 45.8463 50.7351 46.5984C50.1063 47.6352 49.3796 48.6307 48.5574 49.5897C48.3592 49.4534 48.1317 49.339 47.8723 49.2514C47.7402 48.5893 47.3218 48.0198 46.6807 47.6498C45.8121 47.1509 44.7991 46.8977 43.6662 46.8977C42.8979 46.8977 42.1541 47.0389 41.4567 47.3139C41.2463 47.3967 41.0408 47.4916 40.8401 47.5987C40.6615 47.6936 40.4853 47.7959 40.3165 47.9103C40.1844 47.9979 40.0571 48.0904 39.9299 48.1877V44.3469C39.9299 44.2812 39.925 44.0767 39.8614 43.8139C39.6852 43.1032 39.0808 41.9568 36.9961 41.9568C36.6511 41.9568 36.3379 41.9933 36.0566 42.0614C35.2613 42.2488 34.7157 42.6748 34.4 43.1908C34.1798 43.551 34.0746 43.9526 34.0746 44.3469V48.7646C33.7003 48.6672 33.3455 48.6429 33.0812 48.6429C32.7607 48.6429 32.3007 48.6794 31.8407 48.84C31.1213 47.9273 30.4827 46.9805 29.9297 45.9972C29.614 45.4325 29.3253 44.8556 29.0659 44.2666C28.4249 42.8087 27.9673 41.2777 27.7128 39.664C27.7031 39.6031 27.6933 39.5398 27.6835 39.4766C27.6835 39.4717 27.681 39.4668 27.6835 39.462C27.1892 36.142 27.544 32.4837 28.8849 28.4288C30.742 22.8112 34.493 16.4342 40.5098 9.14442C46.5217 16.4269 50.2702 22.799 52.1298 28.4117C52.7048 30.152 53.0987 31.8169 53.3214 33.4135C53.6199 35.5311 53.6175 37.527 53.341 39.4133Z" fill="#333333"/>
<path d="M40.5098 6.21636C42.2354 6.21636 43.6344 4.82478 43.6344 3.10818C43.6344 1.39158 42.2354 0 40.5098 0C38.7841 0 37.3852 1.39158 37.3852 3.10818C37.3852 4.82478 38.7841 6.21636 40.5098 6.21636Z" fill="#333333"/>
<path d="M77.0753 22.2002C78.3009 22.2002 79.2945 21.2118 79.2945 19.9926C79.2945 18.7734 78.3009 17.785 77.0753 17.785C75.8496 17.785 74.856 18.7734 74.856 19.9926C74.856 21.2118 75.8496 22.2002 77.0753 22.2002Z" fill="#333333"/>
<path d="M3.92227 22.1856C5.14794 22.1856 6.14155 21.1973 6.14155 19.978C6.14155 18.7588 5.14794 17.7704 3.92227 17.7704C2.6966 17.7704 1.70299 18.7588 1.70299 19.978C1.70299 21.1973 2.6966 22.1856 3.92227 22.1856Z" fill="#333333"/>
<path d="M39.9299 47.0852L39.9299 48.1877C40.0571 48.0904 40.1844 47.9979 40.3165 47.9103C40.1941 47.6303 40.0645 47.3553 39.9299 47.0852ZM33.3039 40.3406C33.299 40.3382 33.2941 40.3358 33.2892 40.3333C33.0323 40.2214 32.7729 40.1192 32.5062 40.0267C32.5062 40.0267 32.5037 40.0267 32.5013 40.0242C32.0217 39.8563 31.5275 39.7224 31.021 39.6226C30.331 39.4863 29.6189 39.4157 28.8824 39.4157C28.5227 39.4036 28.1264 39.423 27.6835 39.462C27.659 39.4644 27.6321 39.4669 27.6052 39.4693H27.5954C25.6551 39.6567 22.8412 40.2214 18.4785 40.1873C18.3586 40.1873 18.2387 40.1873 18.1188 40.1849C15.9069 40.1532 13.3059 39.9658 10.2327 39.5058C8.41955 39.2356 6.44251 38.8681 4.28196 38.3837C4.08377 38.3375 3.88313 38.2912 3.68004 38.245C3.32769 38.1622 2.9778 38.1452 2.64258 38.1866C2.59854 38.1914 2.55449 38.1963 2.5129 38.2036C2.46152 38.2109 2.41013 38.2207 2.35875 38.2328C2.23641 38.2572 2.11651 38.2912 2.00151 38.3326C1.87672 38.374 1.75683 38.4251 1.63938 38.486C1.58065 38.5152 1.52438 38.5468 1.4681 38.5809C0.599474 39.0896 0 40.0267 0 41.1365V41.47C0 44.5684 0.738944 47.4576 2.01864 49.9061C3.23471 48.991 4.84718 48.4823 6.56975 48.4823C8.48317 48.4823 10.3574 49.2173 11.5833 50.4513C11.6225 50.4903 11.6616 50.5292 11.6983 50.5706C12.1999 50.0595 12.7749 49.6262 13.4184 49.2684C13.854 49.0299 14.3164 48.84 14.8058 48.7013H14.8082C15.4664 48.5163 16.1662 48.4214 16.9101 48.4214C18.5666 48.4214 20.0273 48.9301 21.2238 49.911C21.4514 49.3147 21.9579 48.7013 22.9366 48.453H22.944C23.2351 48.3751 23.563 48.3338 23.9472 48.3338C24.2677 48.3338 24.7277 48.3703 25.1902 48.5309H25.1999L25.2024 48.5333C25.2611 48.5504 25.3052 48.5723 25.3639 48.5966C26.2815 48.9812 26.8516 49.7966 26.8516 50.7118L26.8858 56.765L26.8907 57.4636H30.1646L30.1646 57.2324L30.1768 51.0476C30.1768 50.1227 30.7396 49.3049 31.6498 48.9155C31.7134 48.8887 31.777 48.8619 31.8407 48.84C32.3007 48.6794 32.7607 48.6429 33.0812 48.6429C33.3455 48.6429 33.7003 48.6672 34.0746 48.7646V44.3469C34.0746 43.9526 34.1798 43.551 34.4 43.1908C34.7157 42.6748 35.2613 42.2488 36.0566 42.0614C35.21 41.3556 34.2899 40.7763 33.3039 40.3406ZM40.4902 56.2418C40.4853 56.2612 40.4829 56.2807 40.478 56.3002C40.4878 56.3075 40.4975 56.3148 40.5073 56.3196C40.5024 56.2929 40.4951 56.2685 40.4902 56.2418ZM40.5073 56.3196C40.5073 56.3218 40.5096 56.3218 40.5096 56.3218C40.5096 56.3218 40.5118 56.3218 40.5118 56.3196C40.5096 56.3196 40.5096 56.3196 40.5073 56.3196ZM79.5343 38.5809C78.9006 38.2036 78.1201 38.06 77.3249 38.245C76.718 38.3862 76.1259 38.5176 75.5509 38.6417C75.1178 38.7342 74.6921 38.8218 74.2761 38.9046C73.9972 38.9606 73.7231 39.0117 73.454 39.0628C73.3194 39.0872 73.1848 39.1139 73.0502 39.1383C72.6514 39.2113 72.2599 39.2794 71.8733 39.3427C71.7436 39.3671 71.6164 39.3865 71.4916 39.406C71.3668 39.4255 71.2396 39.4474 71.1148 39.4668C70.99 39.4863 70.8677 39.5058 70.7429 39.5228C70.5373 39.5544 70.3342 39.5861 70.1336 39.6129C69.933 39.6421 69.7348 39.6689 69.539 39.6932C69.3433 39.72 69.15 39.7443 68.9567 39.7687C68.46 39.8319 67.9804 39.8855 67.5131 39.9293C67.3687 39.9439 67.2268 39.9585 67.0849 39.9707C66.6077 40.0145 66.1477 40.051 65.6999 40.0802C65.5409 40.0899 65.3843 40.0997 65.2301 40.1094C65.0711 40.1191 64.917 40.1265 64.7628 40.1338C64.6087 40.1411 64.4569 40.1484 64.3077 40.1532C64.0067 40.1654 63.7107 40.1727 63.4244 40.1776C63.3069 40.18 63.1919 40.1824 63.0769 40.1824C62.7589 40.1897 62.4505 40.1897 62.152 40.1849C62.0248 40.1849 61.8976 40.1824 61.7728 40.18C61.6896 40.18 61.6088 40.1776 61.5305 40.1751C61.4425 40.1727 61.3568 40.1703 61.2712 40.1678C61.1268 40.163 60.9849 40.1581 60.8454 40.1532C60.7745 40.1508 60.7035 40.1484 60.635 40.1435C59.9939 40.1167 59.3993 40.0753 58.8439 40.0242C58.7534 40.0169 58.6653 40.0096 58.5772 39.9999C58.313 39.9755 58.056 39.9488 57.8089 39.922C57.6254 39.9001 57.4468 39.8806 57.273 39.8587C56.7445 39.7954 56.2576 39.7273 55.8074 39.6664C55.6557 39.647 55.5113 39.6251 55.3694 39.6056C54.8017 39.5301 54.2928 39.4669 53.8328 39.4352C53.6615 39.423 53.5 39.4157 53.341 39.4133C53.2235 39.4108 53.1085 39.4109 52.996 39.4157C48.347 39.4157 43.9158 42.2245 41.4225 46.4985V46.5059C41.2145 46.8612 41.0187 47.2214 40.8401 47.5987C41.0408 47.4916 41.2463 47.3967 41.4567 47.3139C42.1541 47.0389 42.8979 46.8977 43.6662 46.8977C44.7991 46.8977 45.8121 47.1509 46.6807 47.6498C47.3218 48.0198 47.7402 48.5893 47.8723 49.2514C48.1317 49.339 48.3592 49.4534 48.5574 49.5897C49.2425 50.0546 49.5631 50.7604 49.5631 51.4541V53.0313C49.5631 53.2187 49.5386 53.4013 49.4921 53.5765C50.1944 53.6155 50.8208 53.9538 51.2343 54.5209L53.0351 56.9671L53.3997 57.4636H54.1851L54.7479 56.6117L56.0154 54.6937C56.4411 54 57.1703 53.5863 57.9875 53.5863C58.7632 53.5863 59.4703 53.9441 59.9377 54.4966C59.9695 54.5307 59.9988 54.5672 60.0257 54.6037C61.2663 53.837 62.7197 53.4403 64.3273 53.4403C65.8174 53.4403 67.8703 53.7932 69.4044 55.4118C70.6597 54.1485 72.5535 53.4257 74.6089 53.4257C75.3258 53.4257 76.0378 53.5279 76.7107 53.7226C79.4071 50.7897 81 46.3891 81 41.47V41.139C81 40.0315 80.4005 39.092 79.5343 38.5809Z" fill="#333333"/>
<path d="M34.4 43.1908C34.1798 43.551 34.0746 43.9526 34.0746 44.3469L34.0746 46.0337C33.0787 46.0361 31.6131 46.0288 29.9297 45.9972C29.406 45.9874 28.8629 45.9753 28.305 45.9607C23.4994 45.8341 17.7028 45.4982 15.8065 44.6268C14.0889 43.8407 14.0889 42.8549 14.5195 42.0663C14.982 41.2168 15.8751 40.6814 16.844 40.5937L24.5075 39.8952C24.5075 39.8952 25.9511 39.7224 27.7128 39.664C28.4591 39.6396 29.2617 39.6372 30.0373 39.6786C30.0398 39.6786 30.0398 39.6786 30.0422 39.6786C30.9451 39.7224 31.8113 39.8271 32.5013 40.0242C32.5037 40.0267 32.5062 40.0267 32.5062 40.0267C32.8023 40.1119 33.0665 40.2116 33.2892 40.3333C33.2941 40.3358 33.299 40.3382 33.3039 40.3406C33.3308 40.3577 33.3577 40.3722 33.3822 40.3869L34.4 43.1908Z" fill="#333333"/>
<path d="M79.5343 38.5809C79.1918 45.5153 69.769 48.3995 53.867 48.5674L49.9692 39.8855C50.6592 39.7492 51.3713 39.552 52.1078 39.552C52.4748 39.5398 53.0669 39.4985 53.8328 39.4352C57.2094 39.6689 63.072 41.5722 77.3249 38.245C78.1201 38.0624 78.8982 38.2061 79.5343 38.5809Z" fill="#333333"/>
<path d="M31.0332 39.8855L29.0659 44.2666L28.305 45.9607L27.1354 48.5675C26.4796 48.5602 25.8361 48.548 25.2024 48.5333L25.1999 48.5309H25.1902C24.7277 48.3703 24.2677 48.3338 23.9472 48.3338C23.563 48.3338 23.2351 48.3751 22.944 48.453H22.9366C19.6065 48.2973 16.6189 48.0003 14.0106 47.5403V47.5379C6.15868 46.1529 1.703 43.3077 1.4681 38.5809C1.52438 38.5468 1.58065 38.5152 1.63938 38.486C1.75683 38.4275 1.87672 38.3764 2.00151 38.3326C2.11651 38.2912 2.23641 38.2572 2.35875 38.2328C2.41013 38.2207 2.46152 38.2109 2.5129 38.2036C2.55449 38.1963 2.59854 38.1914 2.64258 38.1866C2.9778 38.1452 3.32769 38.1622 3.68004 38.245C3.88313 38.2912 4.08377 38.3375 4.28196 38.3837C6.45964 38.8778 8.43668 39.2477 10.2376 39.5204C13.3646 39.9925 15.9534 40.1703 18.1188 40.1849C18.2387 40.1873 18.3586 40.1873 18.4785 40.1873C22.7507 40.1849 25.3296 39.5618 27.1696 39.4352C27.3189 39.4474 27.4608 39.4595 27.5954 39.4693H27.6052C27.6321 39.4717 27.6566 39.4741 27.6835 39.4766C28.2022 39.5155 28.6133 39.5423 28.8947 39.552C29.2813 39.552 29.663 39.6055 30.0373 39.6786C30.0398 39.6786 30.0398 39.6786 30.0422 39.6786C30.3774 39.7443 30.7078 39.8222 31.0332 39.8855Z" fill="#333333"/>
<path d="M45.5576 46.6227C45.5576 46.6227 61.7532 46.7979 65.1861 45.2207C66.9013 44.4321 66.9013 43.4488 66.4731 42.6602C66.0107 41.8083 65.1176 41.2753 64.1486 41.1876L56.4852 40.4891C56.4852 40.4891 49.7662 39.681 47.6081 40.9808L45.5576 46.6227Z" fill="#333333"/>
<path d="M40.4902 56.2418C40.4951 56.2685 40.5024 56.2929 40.5073 56.3196C40.4975 56.3148 40.4878 56.3075 40.478 56.3002C40.4829 56.2807 40.4853 56.2612 40.4902 56.2418Z" fill="#333333"/>
<path d="M40.5118 56.3196C40.5118 56.3218 40.5096 56.3218 40.5096 56.3218C40.5096 56.3218 40.5073 56.3218 40.5073 56.3196C40.5096 56.3196 40.5096 56.3196 40.5118 56.3196Z" fill="#333333"/>
<path d="M1.75683 61.4309C1.75683 61.1948 1.96481 61.0342 2.20215 61.0342C2.48354 61.0342 2.63035 61.1656 2.64747 61.4309C2.72088 62.3875 3.12216 63.125 3.84642 63.641C4.57069 64.1424 5.3708 64.3931 6.27368 64.4077C7.0738 64.4077 7.7687 64.1862 8.36083 63.7456C8.96765 63.3027 9.26372 62.626 9.26372 61.6987C9.26372 60.7567 8.93829 60.0776 8.27275 59.6809C7.60721 59.2842 6.83646 58.9605 5.93357 58.7098C4.64654 58.3422 3.69717 57.9285 3.09035 57.4733C2.20215 56.7967 1.75683 55.7647 1.75683 54.3943C1.6981 51.7145 4.24526 50.4318 6.56975 50.4318C8.7768 50.4318 11.2334 51.7729 11.2041 54.3335C11.2041 54.5842 10.9961 54.7302 10.7587 54.7302C10.4773 54.7302 10.3305 54.5988 10.3134 54.3335C10.24 53.3769 9.83872 52.654 9.11446 52.138C8.3902 51.622 7.59008 51.3713 6.6872 51.3713C5.88708 51.3713 5.19218 51.5928 4.58537 52.0334C3.99323 52.4764 3.69717 53.153 3.69717 54.0803C3.69717 55.0223 4.02259 55.7014 4.68813 56.0981C5.35367 56.4948 6.12443 56.8186 7.02731 57.0693C8.31434 57.4368 9.26372 57.8506 9.87053 58.3057C10.7587 58.9824 11.2041 60.0144 11.2041 61.3847C11.2628 64.0645 8.71563 65.3472 6.39113 65.3472C4.18653 65.3472 1.72746 64.0231 1.75683 61.4309Z" fill="#333333"/>
<path d="M12.496 62.9181C11.5344 61.4748 11.0597 59.7223 11.0597 57.6753C11.0597 56.7188 11.1918 55.7914 11.4438 54.8909C11.9772 53.0508 12.9535 51.7535 14.3605 50.9746C15.0847 50.5779 15.9289 50.371 16.9076 50.371C18.6547 50.371 20.0322 51.1085 21.0379 52.5956C21.9554 53.966 22.4154 55.6284 22.4154 57.5585C22.4154 59.6493 21.9554 61.4309 21.0232 62.9181C20.0004 64.5537 18.6106 65.3618 16.8489 65.3618C15.0138 65.3618 13.5628 64.5513 12.496 62.9181ZM21.3951 57.6607C21.3951 54.5671 20.1228 51.4322 17.4263 51.4614C15.4713 51.4614 14.1696 52.6979 13.5188 54.5258C13.164 55.4969 12.9853 56.5435 12.9853 57.6485C12.9853 58.7098 13.1346 59.7247 13.4307 60.6813C13.7414 61.7133 14.2308 62.5822 14.867 63.2734C15.5178 63.9647 16.3179 64.3055 17.2795 64.3055C19.9735 64.3614 21.3951 61.0756 21.3951 57.6607Z" fill="#333333"/>
<path d="M32.1489 65.0673L32.1196 62.1368C31.2461 64.2422 29.7217 65.2888 27.5734 65.2888C26.3891 65.2888 25.337 64.9213 24.4047 64.1984C23.4872 63.4779 23.0272 62.3583 23.0125 60.8395L23.0272 50.7215C23.0272 50.427 23.3379 50.2785 23.9447 50.2785C24.4341 50.2785 24.8916 50.427 24.8916 50.7215L24.9504 60.8395C24.9504 63.2686 26.3426 64.2276 27.8523 64.2276C29.1393 64.2276 30.1915 63.6093 31.0063 62.3729C31.7477 61.2533 32.1171 60.0168 32.1171 58.6757L32.1318 51.0476C32.1318 50.7385 32.5918 50.59 33.0787 50.59C33.5975 50.59 34.055 50.7531 34.055 51.0476L34.0403 65.0673C34.0403 65.2304 33.7149 65.318 33.0787 65.318C32.4597 65.318 32.1489 65.2304 32.1489 65.0673Z" fill="#333333"/>
<path d="M38.5645 65.1866C36.8909 65.1866 36.0468 64.0669 36.0321 61.8277V44.3469C36.0321 44.0524 36.5068 43.9039 36.9937 43.9039C37.6445 43.9039 37.97 44.05 37.97 44.3469V61.7839C37.97 63.4487 38.3101 64.2884 39.0074 64.2884L39.5996 64.303C39.8809 64.303 40.0131 64.5245 40.0131 64.7606C40.0131 65.0405 39.8809 65.1866 39.6142 65.1866H38.5645Z" fill="#333333"/>
<path d="M39.416 73.557L39.4601 56.7382V55.8255L39.4748 54.0876C39.4895 52.1867 39.9201 50.8334 40.7618 50.0375C41.606 49.2416 42.5823 48.8449 43.6638 48.8449C44.4492 48.8449 45.1294 49.0079 45.6922 49.3317C45.8708 49.4339 45.9589 49.5532 45.9589 49.7138C45.9589 49.8014 45.9295 49.9061 45.8708 50.0083C45.768 50.186 45.6188 50.2736 45.4573 50.2736C45.3545 50.2736 45.2346 50.2444 45.1025 50.1714C44.7624 49.9937 44.3782 49.9061 43.9476 49.9061C42.2006 49.9061 41.327 51.3056 41.327 54.0876V64.2714H43.2062C43.5023 64.2714 43.6515 64.4199 43.6515 64.6973C43.6515 65.021 43.5341 65.1841 43.282 65.1841H41.327L41.283 73.557C41.283 73.8515 40.9429 74 40.2773 74C39.6974 74 39.416 73.8515 39.416 73.557Z" fill="#333333"/>
<path d="M45.68 53.0313V51.4565C45.68 51.1474 46.1546 50.9989 46.6416 50.9989C47.1309 51.0135 47.6032 51.162 47.6032 51.4565V53.0313C47.6032 53.3258 47.1285 53.4743 46.6416 53.4743C46.1546 53.4719 45.68 53.3258 45.68 53.0313ZM45.6946 70.0107V55.991C45.6946 55.6819 46.1546 55.5334 46.6416 55.5334C47.1309 55.5334 47.6032 55.6965 47.6032 55.991V70.0107C47.6032 70.1738 47.2777 70.2614 46.6416 70.2614C46.1228 70.2614 45.6946 70.1884 45.6946 70.0107Z" fill="#333333"/>
<path d="M57.8383 70.1007L53.4266 64.0475L49.3991 70.0569C49.311 70.1884 49.1911 70.2638 49.059 70.2638C48.7189 70.2638 48.4962 70.0277 48.4962 69.7916C48.4962 69.6431 49.9179 67.4355 52.7611 63.1493C49.6071 58.8339 48.0387 56.6555 48.0387 56.6092C48.0387 56.3877 48.2026 56.1516 48.5134 55.9034C48.8241 55.6527 49.1055 55.5212 49.3575 55.5212C49.4897 55.5212 49.5802 55.5651 49.6536 55.6697L53.9038 61.4431L57.6792 55.7281C57.7526 55.5967 57.8578 55.5358 57.99 55.5358C58.3007 55.5358 58.5674 55.7865 58.5674 56.0372C58.5674 56.2295 57.2339 58.3349 54.5546 62.3558C57.8848 66.9074 59.5437 69.205 59.5437 69.2488C59.5437 69.6918 58.6115 70.3101 58.1368 70.3101C58.0316 70.3052 57.941 70.2322 57.8383 70.1007Z" fill="#333333"/>
<path d="M57.8578 62.8402C57.8578 60.7932 58.4059 59.07 59.5021 57.6705C60.6864 56.1541 62.3013 55.3874 64.3297 55.3874C67.8385 55.3874 69.5855 57.6851 69.5855 62.2804C69.5855 62.5165 69.3188 62.7672 69.0668 62.7672H59.7835C59.7835 65.963 61.3984 69.115 64.6551 69.115C66.6542 69.115 68.5481 67.8201 68.5481 65.5225C68.5481 65.2279 68.6802 65.0795 68.9469 65.0649C69.2283 65.0649 69.4363 65.2279 69.4363 65.5225C69.4363 67.0972 68.9029 68.3215 67.8214 69.1758C66.8597 69.9279 65.7342 70.2955 64.4154 70.2955C60.0771 70.2906 57.8578 66.6104 57.8578 62.8402ZM68.5163 61.9567C68.4869 59.4984 67.7161 56.3464 64.6086 56.4194C61.5892 56.3902 60.0942 59.3353 59.8128 61.9567H68.5163Z" fill="#333333"/>
<path d="M69.7959 66.3743C69.7959 66.1383 70.0039 65.9776 70.2413 65.9776C70.5227 65.9776 70.6695 66.109 70.6866 66.3743C70.76 67.3309 71.1613 68.0684 71.8855 68.5844C72.6098 69.0858 73.4099 69.3365 74.3128 69.3511C75.1129 69.3511 75.8078 69.1296 76.3999 68.689C77.0068 68.2461 77.3028 67.5694 77.3028 66.6421C77.3028 65.7001 76.9774 65.0211 76.3119 64.6243C75.6463 64.2276 74.8756 63.9039 73.9727 63.6532C72.6857 63.2856 71.7363 62.8719 71.1295 62.4167C70.2413 61.7401 69.7959 60.7081 69.7959 59.3377C69.7372 56.6579 72.2844 55.3752 74.6089 55.3752C76.8159 55.3752 79.2725 56.7163 79.2432 59.2769C79.2432 59.5276 79.0352 59.6736 78.7979 59.6736C78.5165 59.6736 78.3697 59.5422 78.3525 59.2769C78.2791 58.3203 77.8778 57.5974 77.1536 57.0814C76.4293 56.5654 75.6292 56.3147 74.7263 56.3147C73.9262 56.3147 73.2313 56.5362 72.6245 56.9768C72.0323 57.4198 71.7363 58.0964 71.7363 59.0238C71.7363 59.9657 72.0617 60.6448 72.7272 61.0415C73.3928 61.4382 74.1635 61.762 75.0664 62.0127C76.3535 62.3802 77.3028 62.794 77.9097 63.2491C78.7979 63.9258 79.2432 64.9578 79.2432 66.3281C79.3019 69.0079 76.7547 70.2906 74.4303 70.2906C72.2232 70.2906 69.7666 68.9665 69.7959 66.3743Z" fill="#333333"/>
</mask>
<g mask="url(#mask0_904_5738)">
<rect opacity="0.2" x="-19.2592" y="-17" width="24.6568" height="103.482" transform="rotate(30 -19.2592 -17)" fill="white"/>
<rect opacity="0.2" x="10.5126" y="-17" width="4.42388" height="103.482" transform="rotate(30 10.5126 -17)" fill="white"/>
<rect opacity="0.2" x="12.4432" y="-14.4974" width="2.27483" height="103.482" transform="rotate(30 12.4432 -14.4974)" fill="white"/>
</g>
<defs>
<linearGradient id="paint0_linear_904_5738" x1="39.8613" y1="39.9643" x2="74.0436" y2="39.9643" gradientUnits="userSpaceOnUse">
<stop stop-color="#FDE48C"/>
<stop offset="1" stop-color="#F14784"/>
</linearGradient>
<linearGradient id="paint1_linear_904_5738" x1="6.93679" y1="40.0969" x2="41.4566" y2="40.0969" gradientUnits="userSpaceOnUse">
<stop stop-color="#FDE48C"/>
<stop offset="1" stop-color="#F14784"/>
</linearGradient>
<linearGradient id="paint2_linear_904_5738" x1="40.5073" y1="56.3215" x2="40.5117" y2="56.3215" gradientUnits="userSpaceOnUse">
<stop stop-color="#FDE48C"/>
<stop offset="1" stop-color="#F14784"/>
</linearGradient>
<linearGradient id="paint3_linear_904_5738" x1="40.4779" y1="56.2817" x2="40.5073" y2="56.2817" gradientUnits="userSpaceOnUse">
<stop stop-color="#FDE48C"/>
<stop offset="1" stop-color="#F14784"/>
</linearGradient>
<linearGradient id="paint4_linear_904_5738" x1="27.4709" y1="29.368" x2="53.5469" y2="29.368" gradientUnits="userSpaceOnUse">
<stop stop-color="#FDE48C"/>
<stop offset="1" stop-color="#F14784"/>
</linearGradient>
<linearGradient id="paint5_linear_904_5738" x1="37.3846" y1="3.10777" x2="43.633" y2="3.10777" gradientUnits="userSpaceOnUse">
<stop stop-color="#FDE48C"/>
<stop offset="1" stop-color="#F14784"/>
</linearGradient>
<linearGradient id="paint6_linear_904_5738" x1="74.8564" y1="19.9916" x2="79.2958" y2="19.9916" gradientUnits="userSpaceOnUse">
<stop stop-color="#FDE48C"/>
<stop offset="1" stop-color="#F14784"/>
</linearGradient>
<linearGradient id="paint7_linear_904_5738" x1="1.70348" y1="19.9791" x2="6.14287" y2="19.9791" gradientUnits="userSpaceOnUse">
<stop stop-color="#FDE48C"/>
<stop offset="1" stop-color="#F14784"/>
</linearGradient>
<linearGradient id="paint8_linear_904_5738" x1="0" y1="47.8151" x2="81" y2="47.8151" gradientUnits="userSpaceOnUse">
<stop stop-color="#944CE4"/>
<stop offset="0.5568" stop-color="#F7CAD6"/>
<stop offset="1" stop-color="#9F5AE2"/>
</linearGradient>
<linearGradient id="paint9_linear_904_5738" x1="14.28" y1="42.8413" x2="34.4" y2="42.8413" gradientUnits="userSpaceOnUse">
<stop stop-color="#5D1BB2" stop-opacity="0.8"/>
<stop offset="0.1146" stop-color="#6322B4" stop-opacity="0.7082"/>
<stop offset="0.282" stop-color="#7336BA" stop-opacity="0.574"/>
<stop offset="0.4818" stop-color="#8D56C3" stop-opacity="0.414"/>
<stop offset="0.7065" stop-color="#B282D0" stop-opacity="0.2339"/>
<stop offset="0.9492" stop-color="#E1BBE0" stop-opacity="0.0395"/>
<stop offset="0.9984" stop-color="#EBC7E4" stop-opacity="0"/>
</linearGradient>
<linearGradient id="paint10_linear_904_5738" x1="49.9709" y1="43.3674" x2="79.5351" y2="43.3674" gradientUnits="userSpaceOnUse">
<stop stop-color="#EBC7E4" stop-opacity="0"/>
<stop offset="1" stop-color="#5D1BB2" stop-opacity="0.5"/>
</linearGradient>
<linearGradient id="paint11_linear_904_5738" x1="1.4681" y1="43.3672" x2="31.0331" y2="43.3672" gradientUnits="userSpaceOnUse">
<stop stop-color="#5D1BB2" stop-opacity="0.5"/>
<stop offset="0.1956" stop-color="#601EB3" stop-opacity="0.4022"/>
<stop offset="0.3493" stop-color="#6828B6" stop-opacity="0.3254"/>
<stop offset="0.4887" stop-color="#7539BB" stop-opacity="0.2556"/>
<stop offset="0.6197" stop-color="#8950C1" stop-opacity="0.1901"/>
<stop offset="0.7449" stop-color="#A26ECA" stop-opacity="0.1276"/>
<stop offset="0.8656" stop-color="#C194D5" stop-opacity="0.0672"/>
<stop offset="0.9807" stop-color="#E4BFE2" stop-opacity="0.01"/>
<stop offset="1" stop-color="#EBC7E4" stop-opacity="0"/>
</linearGradient>
<linearGradient id="paint12_linear_904_5738" x1="66.7111" y1="43.4351" x2="45.5579" y2="43.4351" gradientUnits="userSpaceOnUse">
<stop stop-color="#5D1BB2" stop-opacity="0.8"/>
<stop offset="0.1146" stop-color="#6322B4" stop-opacity="0.7082"/>
<stop offset="0.282" stop-color="#7336BA" stop-opacity="0.574"/>
<stop offset="0.4818" stop-color="#8D56C3" stop-opacity="0.414"/>
<stop offset="0.7065" stop-color="#B282D0" stop-opacity="0.2339"/>
<stop offset="0.9492" stop-color="#E1BBE0" stop-opacity="0.0395"/>
<stop offset="0.9984" stop-color="#EBC7E4" stop-opacity="0"/>
</linearGradient>
</defs>
</svg>
