<svg width="141" height="128" viewBox="0 0 141 128" fill="none" xmlns="http://www.w3.org/2000/svg">
<path opacity="0.8" d="M128.891 39.7139C127.762 51.0939 125.816 60.5708 123.145 68.3638C121.292 73.7737 119.09 78.3754 116.569 82.2403C113.072 87.604 108.966 91.5446 104.336 94.2643C103.522 93.3087 102.291 92.6898 100.941 92.6898C99.5186 92.6898 98.2493 93.4055 97.5082 94.6054L95.3019 97.9229C94.3265 98.1671 93.3299 98.3734 92.3204 98.5376L89.1855 94.3065C88.4657 93.3255 87.3753 92.7403 86.1529 92.6729C86.2339 92.3698 86.2764 92.054 86.2764 91.7299V89.0017C86.2764 87.8018 85.7185 86.5809 84.5259 85.7768C84.1809 85.541 83.7847 85.3431 83.3333 85.1916C83.1033 84.0464 82.3749 83.0612 81.259 82.4213C79.7469 81.5582 77.9836 81.1204 76.0115 81.1204C74.6741 81.1204 73.3793 81.3646 72.1654 81.8403C71.7991 81.9835 71.4413 82.1477 71.092 82.3329C70.7811 82.4971 70.4744 82.6739 70.1805 82.8718C69.9505 83.0234 69.729 83.1833 69.5076 83.3517V76.7082C69.5076 76.5945 69.499 76.2409 69.3883 75.7862C69.6566 74.2158 70.0187 72.6875 70.4829 71.1972C73.2728 62.1833 79.6532 54.6725 90.7445 49.1446C99.9786 44.5387 112.48 41.3054 128.891 39.7139Z" fill="url(#paint0_linear_242_9193)"/>
<g opacity="0.8">
<path opacity="0.8" d="M72.1654 81.8403C71.7991 81.9835 71.4413 82.1476 71.092 82.3329C70.7811 82.4971 70.4744 82.6739 70.1805 82.8718C69.9505 83.0233 69.729 83.1833 69.5075 83.3517V76.7082C69.5075 76.5945 69.499 76.2409 69.3883 75.7862C69.0816 74.5568 68.0296 72.5739 64.4006 72.5739C63.8001 72.5739 63.2549 72.637 62.7651 72.7549C61.3808 73.0791 60.431 73.8158 59.8815 74.7084C59.4982 75.3315 59.315 76.0261 59.315 76.7082V84.3495C58.6634 84.1811 58.0458 84.139 57.5858 84.139C57.0278 84.139 56.227 84.2022 55.4263 84.48C55.3155 84.5179 55.2048 84.5642 55.0941 84.6106C53.5096 85.2842 52.53 86.6988 52.53 88.2986L52.5087 98.9965C50.5536 98.8534 48.6455 98.5881 46.8012 98.1882L46.7416 87.7176C46.7416 86.1346 45.7491 84.7242 44.1519 84.059C44.0497 84.0169 43.973 83.979 43.8708 83.9496L43.8665 83.9454H43.8495C43.0445 83.6675 42.2437 83.6043 41.6858 83.6043C41.0171 83.6043 40.4463 83.6759 39.9394 83.8106H39.9267C38.223 84.2401 37.3413 85.301 36.9452 86.3325C34.8624 84.6358 32.3196 83.7559 29.436 83.7559C28.1412 83.7559 26.923 83.9201 25.7773 84.2401H25.773C25.3045 83.5959 24.8402 82.9265 24.3887 82.2319V82.2276C21.8715 78.3628 19.6737 73.7695 17.8209 68.3595C17.8166 68.3511 17.8124 68.3427 17.8124 68.3343C15.146 60.5456 13.2038 51.077 12.0751 39.7139C28.5203 41.3096 41.0426 44.5514 50.281 49.1741C61.3382 54.7019 67.6973 62.2001 70.4829 71.1971C71.3902 74.1232 71.9183 77.205 72.1057 80.4299V80.4426C72.1355 80.9057 72.1568 81.373 72.1654 81.8403Z" fill="url(#paint1_linear_242_9193)"/>
</g>
<path opacity="0.8" d="M70.5206 97.4178C70.5206 97.4215 70.5167 97.4215 70.5167 97.4215C70.5167 97.4215 70.5128 97.4215 70.5128 97.4178C70.5167 97.4178 70.5167 97.4178 70.5206 97.4178Z" fill="url(#paint2_linear_242_9193)"/>
<path opacity="0.8" d="M70.5128 97.4178C70.4957 97.4093 70.4787 97.3967 70.4617 97.3841C70.4702 97.3504 70.4744 97.3167 70.483 97.2831C70.4915 97.3294 70.5043 97.3714 70.5128 97.4178Z" fill="url(#paint3_linear_242_9193)"/>
<path opacity="0.8" d="M92.8528 68.1743C92.8528 68.2122 92.8443 68.2501 92.8401 68.2838C92.7719 68.7385 92.6952 69.1889 92.6101 69.6352C92.1415 72.0602 91.4047 74.3716 90.4208 76.5903V76.5945C89.816 77.967 89.1132 79.3016 88.3167 80.6026C87.222 82.3961 85.957 84.118 84.5259 85.7768C84.1809 85.541 83.7848 85.3431 83.3333 85.1916C83.1033 84.0464 82.375 83.0613 81.259 82.4213C79.747 81.5583 77.9836 81.1204 76.0116 81.1204C74.6741 81.1204 73.3793 81.3646 72.1654 81.8403C71.7991 81.9835 71.4413 82.1477 71.0921 82.3329C70.7811 82.4971 70.4745 82.6739 70.1806 82.8718C69.9506 83.0234 69.7291 83.1834 69.5076 83.3518V76.7082C69.5076 76.5945 69.4991 76.2409 69.3883 75.7862C69.0817 74.5568 68.0296 72.5739 64.4007 72.5739C63.8001 72.5739 63.2549 72.637 62.7651 72.7549C61.3808 73.0791 60.431 73.8159 59.8816 74.7084C59.4982 75.3315 59.3151 76.0262 59.3151 76.7082V84.3496C58.6634 84.1812 58.0458 84.1391 57.5858 84.1391C57.0278 84.1391 56.2271 84.2022 55.4263 84.4801C54.1741 82.9013 53.0624 81.2636 52.0998 79.5627C51.5504 78.5859 51.0478 77.5881 50.5963 76.5693C49.4804 74.0474 48.6839 71.3993 48.2409 68.608C48.2239 68.5027 48.2068 68.3932 48.1898 68.2838C48.1898 68.2754 48.1855 68.2669 48.1898 68.2585C47.3294 62.5159 47.947 56.1881 50.2811 49.1741C53.5139 39.4571 60.0434 28.4267 70.5171 15.8174C80.9822 28.414 87.5074 39.4361 90.7445 49.1446C91.7454 52.1548 92.4312 55.0346 92.8188 57.7964C93.3384 61.4592 93.3341 64.9115 92.8528 68.1743Z" fill="url(#paint4_linear_242_9193)"/>
<g opacity="0.7">
<path opacity="0.7" d="M70.517 10.7526C73.521 10.7526 75.9562 8.34557 75.9562 5.37631C75.9562 2.40706 73.521 0 70.517 0C67.5131 0 65.0779 2.40706 65.0779 5.37631C65.0779 8.34557 67.5131 10.7526 70.517 10.7526Z" fill="url(#paint5_linear_242_9193)"/>
</g>
<g opacity="0.7">
<path opacity="0.7" d="M134.168 38.4004C136.302 38.4004 138.031 36.6908 138.031 34.5818C138.031 32.4729 136.302 30.7633 134.168 30.7633C132.034 30.7633 130.305 32.4729 130.305 34.5818C130.305 36.6908 132.034 38.4004 134.168 38.4004Z" fill="url(#paint6_linear_242_9193)"/>
</g>
<g opacity="0.7">
<path opacity="0.7" d="M6.82767 38.3751C8.96125 38.3751 10.6909 36.6655 10.6909 34.5566C10.6909 32.4476 8.96125 30.738 6.82767 30.738C4.69409 30.738 2.96448 32.4476 2.96448 34.5566C2.96448 36.6655 4.69409 38.3751 6.82767 38.3751Z" fill="url(#paint7_linear_242_9193)"/>
</g>
<path opacity="0.9" d="M69.5076 81.4446V83.3518C69.7291 83.1834 69.9505 83.0234 70.1806 82.8718C69.9676 82.3877 69.7418 81.9119 69.5076 81.4446ZM57.9734 69.7784C57.9649 69.7742 57.9563 69.77 57.9478 69.7658C57.5006 69.5721 57.0491 69.3953 56.5849 69.2353C56.5849 69.2353 56.5806 69.2353 56.5763 69.2311C55.7415 68.9406 54.8811 68.709 53.9995 68.5364C52.7983 68.3007 51.5589 68.1786 50.2768 68.1786C49.6507 68.1575 48.9607 68.1912 48.1898 68.2586C48.1472 68.2628 48.1003 68.267 48.0535 68.2712H48.0364C44.6588 68.5954 39.7606 69.5721 32.1663 69.5132C31.9576 69.5132 31.7489 69.5132 31.5401 69.509C27.6897 69.4542 23.1621 69.1301 17.8124 68.3343C14.6563 67.867 11.2147 67.2313 7.45378 66.3935C7.10878 66.3135 6.75952 66.2335 6.40599 66.1535C5.79265 66.0104 5.18357 65.9809 4.60005 66.0525C4.52338 66.0609 4.44671 66.0693 4.37431 66.0819C4.28486 66.0946 4.19541 66.1114 4.10597 66.1325C3.893 66.1746 3.6843 66.2335 3.48411 66.3051C3.26689 66.3766 3.05818 66.4651 2.85373 66.5703C2.75151 66.6208 2.65355 66.6756 2.55558 66.7345C1.04353 67.6144 0 69.2353 0 71.1551V71.7319C0 77.0914 1.28631 82.0888 3.51393 86.3241C5.6308 84.7411 8.43768 83.8612 11.4362 83.8612C14.767 83.8612 18.0296 85.1327 20.1635 87.2672C20.2317 87.3346 20.2998 87.4019 20.3637 87.4735C21.2369 86.5894 22.2378 85.84 23.358 85.2211C24.1162 84.8085 24.9212 84.4801 25.773 84.2401H25.7773C26.9231 83.9202 28.1412 83.756 29.436 83.756C32.3196 83.756 34.8624 84.6359 36.9452 86.3325C37.3413 85.3011 38.223 84.2401 39.9267 83.8107H39.9395C40.4463 83.676 41.0171 83.6044 41.6858 83.6044C42.2438 83.6044 43.0445 83.6676 43.8495 83.9454H43.8666L43.8708 83.9496C43.9731 83.9791 44.0497 84.017 44.1519 84.0591C45.7492 84.7243 46.7416 86.1347 46.7416 87.7177L46.8012 98.1882L46.8097 99.3965H52.5087V98.9966L52.53 88.2987C52.53 86.6988 53.5096 85.2842 55.0941 84.6106C55.2048 84.5643 55.3156 84.518 55.4263 84.4801C56.2271 84.2022 57.0278 84.1391 57.5858 84.1391C58.0458 84.1391 58.6634 84.1812 59.3151 84.3496V76.7082C59.3151 76.0262 59.4982 75.3315 59.8816 74.7084C60.431 73.8159 61.3808 73.0791 62.7651 72.755C61.2914 71.534 59.6899 70.532 57.9734 69.7784ZM70.483 97.283C70.4744 97.3167 70.4702 97.3504 70.4617 97.3841C70.4787 97.3967 70.4957 97.4093 70.5128 97.4178C70.5043 97.3715 70.4915 97.3294 70.483 97.283ZM70.5128 97.4178C70.5128 97.422 70.517 97.422 70.517 97.422C70.517 97.422 70.5213 97.422 70.5213 97.4178C70.517 97.4178 70.517 97.4178 70.5128 97.4178ZM138.449 66.7345C137.346 66.0819 135.987 65.8335 134.603 66.1535C133.546 66.3977 132.515 66.625 131.515 66.8398C130.761 66.9997 130.02 67.1513 129.295 67.2944C128.81 67.3913 128.333 67.4797 127.864 67.5681C127.63 67.6102 127.396 67.6565 127.162 67.6986C126.467 67.8249 125.786 67.9428 125.113 68.0523C124.887 68.0944 124.666 68.128 124.448 68.1617C124.231 68.1954 124.01 68.2333 123.792 68.267C123.575 68.3007 123.362 68.3343 123.145 68.3638C122.787 68.4185 122.434 68.4733 122.084 68.5196C121.735 68.5701 121.39 68.6164 121.049 68.6585C120.709 68.7048 120.372 68.7469 120.036 68.789C119.171 68.8985 118.336 68.9911 117.523 69.0669C117.271 69.0922 117.024 69.1174 116.777 69.1385C115.947 69.2143 115.146 69.2774 114.367 69.3279C114.09 69.3448 113.817 69.3616 113.549 69.3784C113.272 69.3953 113.004 69.4079 112.735 69.4205C112.467 69.4332 112.203 69.4458 111.943 69.4542C111.419 69.4753 110.904 69.4879 110.405 69.4963C110.201 69.5005 110.001 69.5047 109.801 69.5047C109.247 69.5174 108.71 69.5174 108.191 69.509C107.969 69.509 107.748 69.5048 107.53 69.5005C107.386 69.5005 107.245 69.4963 107.109 69.4921C106.955 69.4879 106.806 69.4837 106.657 69.4795C106.406 69.4711 106.159 69.4627 105.916 69.4542C105.793 69.45 105.669 69.4458 105.55 69.4374C104.434 69.3911 103.399 69.3195 102.432 69.2311C102.274 69.2185 102.121 69.2058 101.968 69.189C101.508 69.1469 101.06 69.1006 100.63 69.0543C100.311 69.0164 99.9999 68.9827 99.6975 68.9448C98.7775 68.8353 97.9299 68.7175 97.1462 68.6122C96.8821 68.5785 96.6308 68.5406 96.3838 68.507C95.3956 68.3764 94.5097 68.267 93.7089 68.2122C93.4108 68.1912 93.1297 68.1786 92.8528 68.1744C92.6484 68.1701 92.4482 68.1701 92.2523 68.1786C84.1596 68.1786 76.446 73.037 72.1058 80.43V80.4426C71.7437 81.0573 71.403 81.6804 71.092 82.3329C71.4413 82.1477 71.7991 81.9835 72.1654 81.8404C73.3793 81.3646 74.6741 81.1204 76.0115 81.1204C77.9836 81.1204 79.7469 81.5583 81.259 82.4214C82.3749 83.0613 83.1033 84.0465 83.3333 85.1916C83.7848 85.3432 84.1809 85.5411 84.5259 85.7768C85.7185 86.5809 86.2765 87.8019 86.2765 89.0018V91.7299C86.2765 92.0541 86.2339 92.3698 86.1529 92.673C87.3754 92.7403 88.4657 93.3255 89.1856 94.3065L92.3204 98.5377L92.955 99.3965H94.3223L95.3019 97.923L97.5082 94.6054C98.2494 93.4055 99.5186 92.6898 100.941 92.6898C102.291 92.6898 103.522 93.3087 104.336 94.2644C104.391 94.3233 104.442 94.3865 104.489 94.4496C106.649 93.1235 109.179 92.4372 111.977 92.4372C114.571 92.4372 118.145 93.0477 120.815 95.8474C123 93.6624 126.297 92.4119 129.875 92.4119C131.123 92.4119 132.362 92.5888 133.533 92.9256C138.227 87.8524 141 80.2405 141 71.7319V71.1593C141 69.2437 139.956 67.6186 138.449 66.7345Z" fill="url(#paint8_linear_242_9193)"/>
<path opacity="0.7" d="M59.8815 74.7084C59.4982 75.3315 59.315 76.0262 59.315 76.7082V79.6258C57.5815 79.63 55.0302 79.6174 52.0998 79.5627C51.1883 79.5458 50.2427 79.5248 49.2716 79.4995C40.9063 79.2806 30.816 78.6996 27.5151 77.1924C24.5251 75.8325 24.5251 74.1274 25.2747 72.7633C26.0797 71.294 27.6343 70.3678 29.321 70.2162L42.6612 69.0079C42.6612 69.0079 45.1742 68.709 48.2409 68.6079C49.5399 68.5658 50.937 68.5616 52.2872 68.6332C52.2915 68.6332 52.2915 68.6332 52.2957 68.6332C53.8674 68.709 55.3752 68.89 56.5763 69.231C56.5806 69.2352 56.5848 69.2352 56.5848 69.2352C57.1002 69.3826 57.5602 69.5552 57.9478 69.7657C57.9563 69.7699 57.9648 69.7741 57.9734 69.7783C58.0202 69.8078 58.0671 69.8331 58.1097 69.8583L59.8815 74.7084Z" fill="url(#paint9_linear_242_9193)"/>
<path d="M138.449 66.7345C137.852 78.7291 121.45 83.718 93.7686 84.0085L86.9835 68.9911C88.1846 68.7553 89.4241 68.4143 90.7062 68.4143C91.3451 68.3932 92.3758 68.3217 93.709 68.2122C99.5868 68.6164 109.792 71.9087 134.603 66.1535C135.987 65.8377 137.341 66.0861 138.449 66.7345Z" fill="url(#paint10_linear_242_9193)"/>
<path d="M54.0207 68.9911L50.5962 76.5693L49.2716 79.4996L47.2356 84.0086C46.0941 83.996 44.9739 83.9749 43.8708 83.9496L43.8665 83.9454H43.8495C43.0445 83.6676 42.2437 83.6044 41.6858 83.6044C41.0171 83.6044 40.4463 83.676 39.9394 83.8107H39.9267C34.1298 83.5413 28.9291 83.0276 24.3887 82.2319V82.2277C10.7206 79.8322 2.96444 74.9105 2.55554 66.7345C2.65351 66.6756 2.75147 66.6208 2.85369 66.5703C3.05814 66.4693 3.26685 66.3809 3.48407 66.3051C3.68426 66.2335 3.89296 66.1746 4.10593 66.1325C4.19537 66.1114 4.28482 66.0946 4.37426 66.0819C4.44667 66.0693 4.52334 66.0609 4.60001 66.0525C5.18353 65.9809 5.79261 66.0104 6.40595 66.1535C6.75947 66.2335 7.10874 66.3135 7.45374 66.3935C11.2445 67.2481 14.686 67.8881 17.8209 68.3596C23.2643 69.1764 27.7706 69.4837 31.5401 69.509C31.7488 69.5132 31.9575 69.5132 32.1662 69.5132C39.603 69.509 44.0923 68.4312 47.2953 68.2123C47.5551 68.2333 47.8021 68.2544 48.0364 68.2712H48.0534C48.1003 68.2754 48.1429 68.2796 48.1897 68.2838C49.0927 68.3512 49.8083 68.3975 50.2981 68.4143C50.971 68.4143 51.6355 68.507 52.2872 68.6333C52.2914 68.6333 52.2914 68.6333 52.2957 68.6333C52.8792 68.7469 53.4542 68.8817 54.0207 68.9911Z" fill="url(#paint11_linear_242_9193)"/>
<path opacity="0.7" d="M79.304 80.6447C79.304 80.6447 107.496 80.9478 113.472 78.2196C116.458 76.8556 116.458 75.1547 115.712 73.7906C114.907 72.3171 113.353 71.3951 111.666 71.2435L98.326 70.0352C98.326 70.0352 86.63 68.6374 82.8733 70.8856L79.304 80.6447Z" fill="url(#paint12_linear_242_9193)"/>
<path d="M70.483 97.2831C70.4915 97.3294 70.5043 97.3714 70.5128 97.4178C70.4958 97.4093 70.4787 97.3967 70.4617 97.3841C70.4702 97.3504 70.4745 97.3167 70.483 97.2831Z" fill="#842D2D"/>
<path d="M70.5206 97.4178C70.5206 97.4216 70.5167 97.4216 70.5167 97.4216C70.5167 97.4216 70.5128 97.4216 70.5128 97.4178C70.5167 97.4178 70.5167 97.4178 70.5206 97.4178Z" fill="#842D2D"/>
<path d="M3.05813 106.259C3.05813 105.851 3.42017 105.573 3.83333 105.573C4.32315 105.573 4.5787 105.8 4.60852 106.259C4.7363 107.914 5.43482 109.189 6.69558 110.082C7.95633 110.949 9.34913 111.383 10.9208 111.408C12.3136 111.408 13.5232 111.025 14.554 110.263C15.6103 109.497 16.1257 108.326 16.1257 106.722C16.1257 105.093 15.5592 103.918 14.4007 103.232C13.2421 102.546 11.9005 101.986 10.3288 101.552C8.08837 100.916 6.43576 100.201 5.37945 99.4133C3.83333 98.2429 3.05813 96.4578 3.05813 94.0876C2.95591 89.4522 7.38985 87.2335 11.4362 87.2335C15.2781 87.2335 19.5544 89.5533 19.5033 93.9823C19.5033 94.4159 19.1413 94.6685 18.7281 94.6685C18.2383 94.6685 17.9827 94.4412 17.9529 93.9823C17.8251 92.3277 17.1266 91.0773 15.8659 90.1848C14.6051 89.2922 13.2123 88.8586 11.6406 88.8586C10.2478 88.8586 9.0382 89.2417 7.98189 90.0037C6.95114 90.77 6.43576 91.9404 6.43576 93.5445C6.43576 95.1738 7.00225 96.3484 8.16078 97.0346C9.31931 97.7209 10.661 98.2808 12.2327 98.7145C14.4731 99.3502 16.1257 100.066 17.182 100.853C18.7281 102.024 19.5033 103.809 19.5033 106.179C19.6055 110.814 15.1716 113.033 11.1253 113.033C7.28762 113.033 3.00702 110.743 3.05813 106.259Z" fill="#333333"/>
<path d="M21.7522 108.831C20.0783 106.335 19.252 103.303 19.252 99.7628C19.252 98.1082 19.482 96.5042 19.9207 94.9464C20.8492 91.7636 22.5487 89.5196 24.9977 88.1723C26.2585 87.4861 27.728 87.1282 29.4317 87.1282C32.4728 87.1282 34.8708 88.4039 36.6214 90.9763C38.2186 93.3466 39.0194 96.2221 39.0194 99.5607C39.0194 103.177 38.2186 106.259 36.5958 108.831C34.8154 111.661 32.3962 113.058 29.3295 113.058C26.135 113.058 23.6092 111.656 21.7522 108.831ZM37.2432 99.7375C37.2432 94.3865 35.0284 88.9638 30.3347 89.0144C26.9315 89.0144 24.6655 91.1531 23.5325 94.3149C22.915 95.9947 22.604 97.8051 22.604 99.7165C22.604 101.552 22.8638 103.308 23.3792 104.962C23.9201 106.747 24.772 108.25 25.8794 109.446C27.0124 110.642 28.4052 111.231 30.0791 111.231C34.7686 111.328 37.2432 105.644 37.2432 99.7375Z" fill="#333333"/>
<path d="M55.9629 112.549L55.9118 107.48C54.3913 111.122 51.7377 112.932 47.9981 112.932C45.9365 112.932 44.105 112.296 42.4823 111.046C40.885 109.8 40.0843 107.863 40.0587 105.236L40.0843 87.7345C40.0843 87.2251 40.6252 86.9683 41.6815 86.9683C42.5334 86.9683 43.3299 87.2251 43.3299 87.7345L43.4321 105.236C43.4321 109.438 45.8556 111.096 48.4836 111.096C50.724 111.096 52.5555 110.027 53.9738 107.888C55.2644 105.952 55.9076 103.813 55.9076 101.493L55.9331 88.2986C55.9331 87.764 56.7339 87.5071 57.5815 87.5071C58.4844 87.5071 59.2809 87.7892 59.2809 88.2986L59.2554 112.549C59.2554 112.831 58.6889 112.983 57.5815 112.983C56.5039 112.983 55.9629 112.831 55.9629 112.549Z" fill="#333333"/>
<path d="M67.1308 112.755C64.2174 112.755 62.748 110.819 62.7224 106.945V76.7082C62.7224 76.1988 63.5487 75.942 64.3963 75.942C65.5293 75.942 66.0958 76.1946 66.0958 76.7082V106.869C66.0958 109.749 66.6878 111.202 67.9017 111.202L68.9325 111.227C69.4223 111.227 69.6523 111.61 69.6523 112.018C69.6523 112.503 69.4223 112.755 68.958 112.755H67.1308Z" fill="#333333"/>
<path d="M68.613 127.234L68.6897 98.1419V96.5631L68.7153 93.5571C68.7408 90.269 69.4905 87.9282 70.9557 86.5515C72.4251 85.1747 74.1246 84.4885 76.0072 84.4885C77.3744 84.4885 78.5585 84.7706 79.5382 85.3305C79.8491 85.5073 80.0024 85.7136 80.0024 85.9915C80.0024 86.1431 79.9513 86.3241 79.8491 86.5009C79.6702 86.8083 79.4104 86.9598 79.1293 86.9598C78.9504 86.9598 78.7417 86.9093 78.5117 86.783C77.9196 86.4757 77.2509 86.3241 76.5013 86.3241C73.4601 86.3241 71.9396 88.7449 71.9396 93.5571V111.172H75.2107C75.7261 111.172 75.9859 111.429 75.9859 111.909C75.9859 112.469 75.7815 112.751 75.3427 112.751H71.9396L71.8629 127.234C71.8629 127.743 71.2708 128 70.1123 128C69.1029 128 68.613 127.743 68.613 127.234Z" fill="#333333"/>
<path d="M79.5168 91.7299V89.006C79.5168 88.4713 80.3431 88.2145 81.1907 88.2145C82.0426 88.2397 82.8646 88.4965 82.8646 89.006V91.7299C82.8646 92.2393 82.0383 92.4961 81.1907 92.4961C80.3431 92.4919 79.5168 92.2393 79.5168 91.7299ZM79.5424 121.1V96.8494C79.5424 96.3147 80.3431 96.0579 81.1907 96.0579C82.0426 96.0579 82.8646 96.34 82.8646 96.8494V121.1C82.8646 121.382 82.2981 121.533 81.1907 121.533C80.2878 121.533 79.5424 121.407 79.5424 121.1Z" fill="#333333"/>
<path d="M100.681 121.255L93.0018 110.785L85.991 121.18C85.8376 121.407 85.6289 121.537 85.3989 121.537C84.8069 121.537 84.4193 121.129 84.4193 120.721C84.4193 120.464 86.894 116.645 91.8433 109.231C86.353 101.767 83.6228 97.9987 83.6228 97.9187C83.6228 97.5356 83.9082 97.1272 84.4491 96.6978C84.99 96.2642 85.4799 96.0368 85.9186 96.0368C86.1486 96.0368 86.3062 96.1126 86.4339 96.2936L93.8324 106.28L100.404 96.3947C100.532 96.1673 100.715 96.0621 100.945 96.0621C101.486 96.0621 101.951 96.4957 101.951 96.9294C101.951 97.262 99.6293 100.904 94.9653 107.859C100.762 115.732 103.65 119.706 103.65 119.782C103.65 120.548 102.027 121.617 101.201 121.617C101.018 121.609 100.86 121.483 100.681 121.255Z" fill="#333333"/>
<path d="M100.715 108.697C100.715 105.156 101.669 102.175 103.578 99.7544C105.639 97.1315 108.45 95.8053 111.981 95.8053C118.089 95.8053 121.13 99.7796 121.13 107.728C121.13 108.137 120.666 108.57 120.227 108.57H104.067C104.067 114.098 106.879 119.55 112.548 119.55C116.028 119.55 119.324 117.311 119.324 113.336C119.324 112.827 119.554 112.57 120.019 112.545C120.508 112.545 120.87 112.827 120.87 113.336C120.87 116.06 119.942 118.178 118.059 119.656C116.385 120.956 114.426 121.592 112.13 121.592C104.579 121.584 100.715 115.218 100.715 108.697ZM119.269 107.168C119.218 102.916 117.876 97.4641 112.467 97.5904C107.211 97.5399 104.608 102.634 104.119 107.168H119.269Z" fill="#333333"/>
<path d="M121.497 114.81C121.497 114.401 121.859 114.123 122.272 114.123C122.762 114.123 123.017 114.351 123.047 114.81C123.175 116.464 123.873 117.74 125.134 118.633C126.395 119.5 127.788 119.933 129.359 119.959C130.752 119.959 131.962 119.576 132.992 118.814C134.049 118.047 134.564 116.877 134.564 115.273C134.564 113.644 133.998 112.469 132.839 111.783C131.681 111.096 130.339 110.536 128.767 110.103C126.527 109.467 124.874 108.751 123.818 107.964C122.272 106.794 121.497 105.009 121.497 102.638C121.394 98.003 125.828 95.7842 129.875 95.7842C133.717 95.7842 137.993 98.104 137.942 102.533C137.942 102.967 137.58 103.219 137.167 103.219C136.677 103.219 136.421 102.992 136.391 102.533C136.264 100.878 135.565 99.6281 134.304 98.7355C133.044 97.843 131.651 97.4094 130.079 97.4094C128.686 97.4094 127.477 97.7925 126.42 98.5545C125.39 99.3207 124.874 100.491 124.874 102.095C124.874 103.725 125.441 104.899 126.599 105.585C127.758 106.272 129.099 106.832 130.671 107.265C132.912 107.901 134.564 108.617 135.62 109.404C137.167 110.574 137.942 112.359 137.942 114.73C138.044 119.365 133.61 121.584 129.564 121.584C125.722 121.584 121.445 119.294 121.497 114.81Z" fill="#333333"/>
<mask id="mask0_242_9193" style="mask-type:alpha" maskUnits="userSpaceOnUse" x="0" y="0" width="141" height="128">
<path d="M128.891 39.7139C127.762 51.0939 125.816 60.5708 123.145 68.3637C121.292 73.7737 119.09 78.3754 116.569 82.2403C113.072 87.6039 108.966 91.5446 104.336 94.2643C103.522 93.3086 102.291 92.6898 100.941 92.6898C99.5186 92.6898 98.2494 93.4055 97.5082 94.6054L95.3019 97.9229C94.3266 98.1671 93.3299 98.3734 92.3204 98.5376L89.1856 94.3064C88.4658 93.3255 87.3754 92.7403 86.1529 92.6729C86.2339 92.3698 86.2765 92.054 86.2765 91.7299V89.0017C86.2765 87.8018 85.7185 86.5809 84.5259 85.7768C84.1809 85.541 83.7848 85.3431 83.3333 85.1916C83.1033 84.0464 82.3749 83.0612 81.259 82.4213C79.7469 81.5582 77.9836 81.1204 76.0115 81.1204C74.6741 81.1204 73.3793 81.3646 72.1654 81.8403C71.7991 81.9835 71.4413 82.1476 71.092 82.3329C70.7811 82.4971 70.4745 82.6739 70.1806 82.8718C69.9506 83.0233 69.7291 83.1833 69.5076 83.3517V76.7082C69.5076 76.5945 69.4991 76.2409 69.3883 75.7862C69.6567 74.2158 70.0187 72.6875 70.483 71.1972C73.2728 62.1833 79.6533 54.6725 90.7445 49.1446C99.9787 44.5387 112.48 41.3054 128.891 39.7139Z" fill="#333333"/>
<path d="M72.1654 81.8403C71.7991 81.9835 71.4413 82.1476 71.092 82.3329C70.7811 82.4971 70.4745 82.6739 70.1806 82.8718C69.9506 83.0233 69.7291 83.1833 69.5076 83.3517V76.7082C69.5076 76.5945 69.4991 76.2409 69.3883 75.7862C69.0817 74.5568 68.0296 72.5739 64.4007 72.5739C63.8001 72.5739 63.2549 72.637 62.7651 72.7549C61.3808 73.0791 60.431 73.8158 59.8816 74.7084C59.4982 75.3315 59.3151 76.0261 59.3151 76.7082V84.3495C58.6634 84.1811 58.0458 84.139 57.5858 84.139C57.0278 84.139 56.2271 84.2022 55.4263 84.48C55.3156 84.5179 55.2049 84.5642 55.0941 84.6106C53.5096 85.2842 52.53 86.6988 52.53 88.2986L52.5087 98.9965C50.5537 98.8534 48.6455 98.5881 46.8012 98.1882L46.7416 87.7176C46.7416 86.1346 45.7492 84.7242 44.152 84.059C44.0497 84.0169 43.9731 83.979 43.8708 83.9496L43.8666 83.9454H43.8495C43.0445 83.6675 42.2438 83.6043 41.6858 83.6043C41.0171 83.6043 40.4464 83.6759 39.9395 83.8106H39.9267C38.223 84.2401 37.3413 85.301 36.9452 86.3325C34.8624 84.6358 32.3196 83.7559 29.436 83.7559C28.1412 83.7559 26.9231 83.9201 25.7773 84.2401H25.773C25.3045 83.5959 24.8403 82.9265 24.3888 82.2319V82.2276C21.8715 78.3628 19.6737 73.7695 17.8209 68.3595C17.8167 68.3511 17.8124 68.3427 17.8124 68.3343C15.1461 60.5456 13.2038 51.077 12.0751 39.7139C28.5203 41.3096 41.0427 44.5514 50.2811 49.1741C61.3382 54.7019 67.6974 62.2001 70.483 71.1972C71.3902 74.1232 71.9184 77.205 72.1058 80.4299V80.4426C72.1356 80.9057 72.1569 81.373 72.1654 81.8403Z" fill="#333333"/>
<path d="M70.5205 97.4178C70.5205 97.4215 70.5166 97.4215 70.5166 97.4215C70.5166 97.4215 70.5128 97.4215 70.5128 97.4178C70.5166 97.4178 70.5166 97.4178 70.5205 97.4178Z" fill="#333333"/>
<path d="M70.5128 97.4178C70.4957 97.4093 70.4787 97.3967 70.4616 97.3841C70.4702 97.3504 70.4744 97.3167 70.4829 97.283C70.4915 97.3294 70.5042 97.3714 70.5128 97.4178Z" fill="#333333"/>
<path d="M92.8528 68.1743C92.8528 68.2122 92.8443 68.2501 92.84 68.2838C92.7719 68.7385 92.6952 69.1889 92.61 69.6352C92.1415 72.0602 91.4046 74.3716 90.4207 76.5903V76.5945C89.8159 77.967 89.1131 79.3016 88.3167 80.6026C87.222 82.3961 85.957 84.118 84.5259 85.7768C84.1809 85.541 83.7848 85.3431 83.3333 85.1916C83.1033 84.0464 82.3749 83.0612 81.259 82.4213C79.7469 81.5582 77.9836 81.1204 76.0115 81.1204C74.6741 81.1204 73.3793 81.3646 72.1654 81.8403C71.7991 81.9835 71.4413 82.1476 71.092 82.3329C70.7811 82.4971 70.4745 82.6739 70.1806 82.8718C69.9506 83.0233 69.7291 83.1833 69.5076 83.3517V76.7082C69.5076 76.5945 69.4991 76.2409 69.3883 75.7862C69.0817 74.5568 68.0296 72.5739 64.4007 72.5739C63.8001 72.5739 63.2549 72.637 62.7651 72.7549C61.3808 73.0791 60.431 73.8158 59.8816 74.7084C59.4982 75.3315 59.3151 76.0261 59.3151 76.7082V84.3495C58.6634 84.1811 58.0458 84.139 57.5858 84.139C57.0278 84.139 56.2271 84.2022 55.4263 84.48C54.1741 82.9013 53.0624 81.2636 52.0998 79.5627C51.5503 78.5859 51.0477 77.5881 50.5963 76.5693C49.4803 74.0474 48.6838 71.3993 48.2409 68.608C48.2238 68.5027 48.2068 68.3932 48.1898 68.2838C48.1898 68.2754 48.1855 68.2669 48.1898 68.2585C47.3294 62.5159 47.947 56.1881 50.2811 49.1741C53.5139 39.4571 60.0434 28.4267 70.517 15.8174C80.9821 28.414 87.5074 39.4361 90.7445 49.1446C91.7454 52.1548 92.4311 55.0346 92.8187 57.7964C93.3384 61.4592 93.3341 64.9115 92.8528 68.1743Z" fill="#333333"/>
<path d="M70.517 10.7526C73.521 10.7526 75.9562 8.34557 75.9562 5.37631C75.9562 2.40706 73.521 0 70.517 0C67.5131 0 65.0779 2.40706 65.0779 5.37631C65.0779 8.34557 67.5131 10.7526 70.517 10.7526Z" fill="#333333"/>
<path d="M134.168 38.4004C136.302 38.4004 138.031 36.6908 138.031 34.5818C138.031 32.4729 136.302 30.7633 134.168 30.7633C132.034 30.7633 130.305 32.4729 130.305 34.5818C130.305 36.6908 132.034 38.4004 134.168 38.4004Z" fill="#333333"/>
<path d="M6.82765 38.3751C8.96123 38.3751 10.6908 36.6655 10.6908 34.5566C10.6908 32.4476 8.96123 30.738 6.82765 30.738C4.69407 30.738 2.96446 32.4476 2.96446 34.5566C2.96446 36.6655 4.69407 38.3751 6.82765 38.3751Z" fill="#333333"/>
<path d="M69.5076 81.4446L69.5076 83.3517C69.7291 83.1833 69.9506 83.0233 70.1806 82.8718C69.9676 82.3876 69.7418 81.9119 69.5076 81.4446ZM57.9734 69.7784C57.9649 69.7742 57.9564 69.77 57.9478 69.7658C57.5006 69.5721 57.0491 69.3953 56.5849 69.2353C56.5849 69.2353 56.5806 69.2353 56.5763 69.2311C55.7415 68.9406 54.8811 68.709 53.9995 68.5364C52.7983 68.3007 51.5589 68.1786 50.2768 68.1786C49.6507 68.1575 48.9607 68.1912 48.1898 68.2585C48.1472 68.2627 48.1003 68.267 48.0535 68.2712H48.0364C44.6588 68.5954 39.7606 69.5721 32.1663 69.5132C31.9576 69.5132 31.7489 69.5132 31.5401 69.509C27.6897 69.4542 23.1621 69.13 17.8124 68.3343C14.6563 67.8669 11.2147 67.2313 7.45378 66.3935C7.10878 66.3135 6.75952 66.2335 6.40599 66.1535C5.79265 66.0104 5.18357 65.9809 4.60005 66.0525C4.52338 66.0609 4.44671 66.0693 4.37431 66.0819C4.28486 66.0946 4.19541 66.1114 4.10597 66.1325C3.893 66.1746 3.6843 66.2335 3.48411 66.3051C3.26689 66.3766 3.05818 66.4651 2.85373 66.5703C2.75151 66.6208 2.65355 66.6756 2.55558 66.7345C1.04353 67.6144 0 69.2353 0 71.1551V71.7319C0 77.0914 1.28631 82.0888 3.51393 86.3241C5.6308 84.7411 8.43768 83.8612 11.4362 83.8612C14.767 83.8612 18.0296 85.1327 20.1635 87.2672C20.2317 87.3346 20.2998 87.4019 20.3637 87.4735C21.2369 86.5894 22.2378 85.84 23.358 85.2211C24.1162 84.8085 24.9212 84.48 25.773 84.2401H25.7773C26.9231 83.9201 28.1412 83.7559 29.436 83.7559C32.3196 83.7559 34.8624 84.6358 36.9452 86.3325C37.3413 85.301 38.223 84.2401 39.9267 83.8106H39.9395C40.4464 83.6759 41.0171 83.6043 41.6858 83.6043C42.2438 83.6043 43.0445 83.6675 43.8495 83.9454H43.8666L43.8708 83.9496C43.9731 83.979 44.0497 84.0169 44.152 84.059C45.7492 84.7242 46.7416 86.1346 46.7416 87.7176L46.8012 98.1882L46.8098 99.3965H52.5087L52.5087 98.9965L52.53 88.2986C52.53 86.6988 53.5096 85.2842 55.0941 84.6106C55.2049 84.5642 55.3156 84.5179 55.4263 84.48C56.2271 84.2022 57.0278 84.139 57.5858 84.139C58.0458 84.139 58.6634 84.1811 59.3151 84.3495V76.7082C59.3151 76.0261 59.4982 75.3315 59.8816 74.7084C60.431 73.8158 61.3808 73.0791 62.7651 72.7549C61.2914 71.534 59.6899 70.532 57.9734 69.7784ZM70.4829 97.283C70.4744 97.3167 70.4702 97.3504 70.4616 97.3841C70.4787 97.3967 70.4957 97.4093 70.5128 97.4178C70.5042 97.3714 70.4915 97.3294 70.4829 97.283ZM70.5128 97.4178C70.5128 97.4215 70.5166 97.4215 70.5166 97.4215C70.5166 97.4215 70.5205 97.4215 70.5205 97.4178C70.5166 97.4178 70.5166 97.4178 70.5128 97.4178ZM138.449 66.7345C137.346 66.0819 135.987 65.8335 134.603 66.1535C133.546 66.3977 132.515 66.625 131.515 66.8397C130.761 66.9997 130.02 67.1513 129.295 67.2944C128.81 67.3913 128.333 67.4797 127.864 67.5681C127.63 67.6102 127.396 67.6565 127.162 67.6986C126.467 67.8249 125.786 67.9428 125.113 68.0523C124.887 68.0944 124.666 68.128 124.448 68.1617C124.231 68.1954 124.01 68.2333 123.792 68.267C123.575 68.3007 123.362 68.3343 123.145 68.3637C122.787 68.4185 122.434 68.4733 122.084 68.5196C121.735 68.5701 121.39 68.6164 121.049 68.6585C120.709 68.7048 120.372 68.7469 120.036 68.789C119.171 68.8985 118.336 68.9911 117.523 69.0669C117.271 69.0922 117.024 69.1174 116.777 69.1385C115.947 69.2143 115.146 69.2774 114.367 69.3279C114.09 69.3448 113.817 69.3616 113.549 69.3784C113.272 69.3953 113.004 69.4079 112.735 69.4205C112.467 69.4332 112.203 69.4458 111.943 69.4542C111.419 69.4753 110.904 69.4879 110.405 69.4963C110.201 69.5005 110.001 69.5047 109.801 69.5047C109.247 69.5174 108.71 69.5174 108.191 69.509C107.969 69.509 107.748 69.5047 107.53 69.5005C107.386 69.5005 107.245 69.4963 107.109 69.4921C106.955 69.4879 106.806 69.4837 106.657 69.4795C106.406 69.4711 106.159 69.4626 105.916 69.4542C105.793 69.45 105.669 69.4458 105.55 69.4374C104.434 69.3911 103.399 69.3195 102.432 69.2311C102.274 69.2185 102.121 69.2058 101.968 69.189C101.508 69.1469 101.061 69.1006 100.63 69.0543C100.311 69.0164 99.9999 68.9827 99.6975 68.9448C98.7775 68.8353 97.9299 68.7175 97.1462 68.6122C96.8821 68.5785 96.6308 68.5406 96.3838 68.507C95.3956 68.3764 94.5097 68.267 93.7089 68.2122C93.4108 68.1912 93.1297 68.1785 92.8528 68.1743C92.6484 68.1701 92.4482 68.1701 92.2523 68.1786C84.1596 68.1786 76.446 73.037 72.1058 80.4299V80.4426C71.7437 81.0572 71.403 81.6803 71.092 82.3329C71.4413 82.1476 71.7991 81.9835 72.1654 81.8403C73.3793 81.3646 74.6741 81.1204 76.0115 81.1204C77.9836 81.1204 79.7469 81.5582 81.259 82.4213C82.3749 83.0612 83.1033 84.0464 83.3333 85.1916C83.7848 85.3431 84.1809 85.541 84.5259 85.7768C85.7185 86.5809 86.2765 87.8018 86.2765 89.0017V91.7299C86.2765 92.054 86.2339 92.3698 86.1529 92.6729C87.3754 92.7403 88.4658 93.3255 89.1856 94.3064L92.3204 98.5376L92.9551 99.3965H94.3223L95.3019 97.9229L97.5082 94.6054C98.2494 93.4055 99.5186 92.6898 100.941 92.6898C102.291 92.6898 103.522 93.3086 104.336 94.2643C104.391 94.3233 104.442 94.3865 104.489 94.4496C106.649 93.1235 109.179 92.4372 111.977 92.4372C114.571 92.4372 118.145 93.0477 120.815 95.8474C123 93.6623 126.297 92.4119 129.875 92.4119C131.123 92.4119 132.362 92.5888 133.533 92.9256C138.227 87.8524 141 80.2405 141 71.7319V71.1593C141 69.2437 139.956 67.6186 138.449 66.7345Z" fill="#333333"/>
<path d="M59.8816 74.7084C59.4982 75.3315 59.3151 76.0261 59.3151 76.7082L59.3151 79.6258C57.5815 79.63 55.0302 79.6174 52.0998 79.5627C51.1883 79.5458 50.2427 79.5248 49.2716 79.4995C40.9064 79.2806 30.8161 78.6996 27.5151 77.1924C24.5251 75.8325 24.5251 74.1274 25.2747 72.7633C26.0797 71.294 27.6344 70.3678 29.321 70.2162L42.6612 69.0079C42.6612 69.0079 45.1742 68.709 48.2409 68.608C49.54 68.5659 50.937 68.5616 52.2872 68.6332C52.2915 68.6332 52.2915 68.6332 52.2957 68.6332C53.8674 68.709 55.3752 68.8901 56.5763 69.2311C56.5806 69.2353 56.5849 69.2353 56.5849 69.2353C57.1002 69.3827 57.5602 69.5553 57.9478 69.7658C57.9564 69.77 57.9649 69.7742 57.9734 69.7784C58.0202 69.8079 58.0671 69.8331 58.1097 69.8583L59.8816 74.7084Z" fill="#333333"/>
<path d="M138.449 66.7345C137.852 78.7291 121.45 83.718 93.7686 84.0085L86.9835 68.9911C88.1846 68.7553 89.4241 68.4143 90.7061 68.4143C91.345 68.3932 92.3758 68.3217 93.7089 68.2122C99.5868 68.6164 109.792 71.9087 134.603 66.1535C135.987 65.8377 137.341 66.0861 138.449 66.7345Z" fill="#333333"/>
<path d="M54.0207 68.9911L50.5963 76.5693L49.2716 79.4995L47.2357 84.0086C46.0942 83.996 44.974 83.9748 43.8708 83.9496L43.8666 83.9454H43.8495C43.0445 83.6675 42.2438 83.6043 41.6858 83.6043C41.0171 83.6043 40.4464 83.6759 39.9395 83.8106H39.9267C34.1298 83.5412 28.9292 83.0276 24.3888 82.2319V82.2276C10.7207 79.8321 2.96448 74.9105 2.55558 66.7345C2.65355 66.6756 2.75151 66.6208 2.85373 66.5703C3.05818 66.4693 3.26689 66.3808 3.48411 66.3051C3.6843 66.2335 3.893 66.1746 4.10597 66.1325C4.19541 66.1114 4.28486 66.0946 4.37431 66.0819C4.44671 66.0693 4.52338 66.0609 4.60005 66.0525C5.18357 65.9809 5.79265 66.0104 6.40599 66.1535C6.75952 66.2335 7.10878 66.3135 7.45378 66.3935C11.2446 67.2481 14.6861 67.888 17.8209 68.3595C23.2643 69.1763 27.7707 69.4837 31.5401 69.509C31.7489 69.5132 31.9576 69.5132 32.1663 69.5132C39.603 69.509 44.0923 68.4312 47.2953 68.2122C47.5551 68.2333 47.8022 68.2544 48.0364 68.2712H48.0535C48.1003 68.2754 48.1429 68.2796 48.1898 68.2838C49.0927 68.3511 49.8083 68.3975 50.2981 68.4143C50.9711 68.4143 51.6355 68.5069 52.2872 68.6332C52.2915 68.6332 52.2915 68.6332 52.2957 68.6332C52.8793 68.7469 53.4543 68.8817 54.0207 68.9911Z" fill="#333333"/>
<path d="M79.304 80.6447C79.304 80.6447 107.496 80.9478 113.472 78.2196C116.458 76.8556 116.458 75.1547 115.712 73.7906C114.907 72.3171 113.353 71.3951 111.666 71.2435L98.326 70.0352C98.326 70.0352 86.63 68.6374 82.8733 70.8856L79.304 80.6447Z" fill="#333333"/>
<path d="M70.4829 97.283C70.4915 97.3294 70.5042 97.3714 70.5128 97.4178C70.4957 97.4093 70.4787 97.3967 70.4616 97.3841C70.4702 97.3504 70.4744 97.3167 70.4829 97.283Z" fill="#333333"/>
<path d="M70.5205 97.4178C70.5205 97.4215 70.5166 97.4215 70.5166 97.4215C70.5166 97.4215 70.5128 97.4215 70.5128 97.4178C70.5166 97.4178 70.5166 97.4178 70.5205 97.4178Z" fill="#333333"/>
<path d="M3.05818 106.259C3.05818 105.851 3.42022 105.573 3.83337 105.573C4.32319 105.573 4.57875 105.8 4.60857 106.259C4.73634 107.913 5.43487 109.189 6.69562 110.082C7.95638 110.949 9.34917 111.383 10.9209 111.408C12.3136 111.408 13.5233 111.025 14.554 110.263C15.6104 109.496 16.1257 108.326 16.1257 106.722C16.1257 105.093 15.5592 103.918 14.4007 103.232C13.2422 102.546 11.9005 101.986 10.3288 101.552C8.08842 100.916 6.43581 100.201 5.3795 99.4133C3.83337 98.2429 3.05818 96.4578 3.05818 94.0875C2.95595 89.4522 7.38989 87.2334 11.4362 87.2334C15.2781 87.2334 19.5545 89.5532 19.5034 93.9822C19.5034 94.4159 19.1413 94.6685 18.7282 94.6685C18.2383 94.6685 17.9828 94.4411 17.953 93.9822C17.8252 92.3277 17.1267 91.0773 15.8659 90.1847C14.6052 89.2922 13.2124 88.8585 11.6407 88.8585C10.2479 88.8585 9.03824 89.2416 7.98193 90.0037C6.95118 90.7699 6.43581 91.9403 6.43581 93.5444C6.43581 95.1737 7.00229 96.3483 8.16083 97.0346C9.31936 97.7208 10.661 98.2807 12.2327 98.7144C14.4731 99.3501 16.1257 100.066 17.182 100.853C18.7282 102.024 19.5034 103.809 19.5034 106.179C19.6056 110.814 15.1716 113.033 11.1253 113.033C7.28767 113.033 3.00707 110.743 3.05818 106.259Z" fill="#333333"/>
<path d="M21.7523 108.831C20.0783 106.335 19.252 103.303 19.252 99.7627C19.252 98.1081 19.482 96.5041 19.9208 94.9464C20.8493 91.7635 22.5487 89.5195 24.9978 88.1723C26.2586 87.486 27.7281 87.1282 29.4318 87.1282C32.4729 87.1282 34.8709 88.4038 36.6215 90.9762C38.2187 93.3465 39.0195 96.222 39.0195 99.5606C39.0195 103.177 38.2187 106.259 36.5959 108.831C34.8155 111.66 32.3962 113.058 29.3296 113.058C26.1351 113.058 23.6093 111.656 21.7523 108.831ZM37.2433 99.7375C37.2433 94.3864 35.0285 88.9638 30.3347 89.0143C26.9316 89.0143 24.6656 91.153 23.5326 94.3148C22.915 95.9947 22.6041 97.805 22.6041 99.7164C22.6041 101.552 22.8639 103.308 23.3793 104.962C23.9202 106.747 24.7721 108.25 25.8795 109.446C27.0125 110.642 28.4053 111.231 30.0792 111.231C34.7687 111.328 37.2433 105.644 37.2433 99.7375Z" fill="#333333"/>
<path d="M55.963 112.549L55.9119 107.48C54.3913 111.122 51.7377 112.932 47.9981 112.932C45.9366 112.932 44.1051 112.296 42.4823 111.046C40.8851 109.8 40.0843 107.863 40.0587 105.236L40.0843 87.7344C40.0843 87.225 40.6252 86.9682 41.6815 86.9682C42.5334 86.9682 43.3299 87.225 43.3299 87.7344L43.4321 105.236C43.4321 109.438 45.8557 111.096 48.4836 111.096C50.724 111.096 52.5555 110.027 53.9739 107.888C55.2644 105.952 55.9076 103.813 55.9076 101.493L55.9332 88.2986C55.9332 87.7639 56.7339 87.5071 57.5815 87.5071C58.4845 87.5071 59.281 87.7891 59.281 88.2986L59.2554 112.549C59.2554 112.831 58.6889 112.982 57.5815 112.982C56.5039 112.982 55.963 112.831 55.963 112.549Z" fill="#333333"/>
<path d="M67.1309 112.755C64.2175 112.755 62.7481 110.818 62.7225 106.945V76.7082C62.7225 76.1987 63.5488 75.9419 64.3964 75.9419C65.5294 75.9419 66.0959 76.1945 66.0959 76.7082V106.869C66.0959 109.749 66.6879 111.202 67.9018 111.202L68.9326 111.227C69.4224 111.227 69.6524 111.61 69.6524 112.018C69.6524 112.503 69.4224 112.755 68.9581 112.755H67.1309Z" fill="#333333"/>
<path d="M68.6131 127.234L68.6898 98.1418V96.563L68.7153 93.557C68.7409 90.2689 69.4905 87.9281 70.9557 86.5514C72.4252 85.1747 74.1247 84.4884 76.0073 84.4884C77.3745 84.4884 78.5586 84.7705 79.5382 85.3304C79.8492 85.5073 80.0025 85.7136 80.0025 85.9914C80.0025 86.143 79.9514 86.324 79.8492 86.5009C79.6703 86.8082 79.4105 86.9598 79.1294 86.9598C78.9505 86.9598 78.7418 86.9092 78.5118 86.7829C77.9197 86.4756 77.251 86.324 76.5014 86.324C73.4602 86.324 71.9396 88.7448 71.9396 93.557V111.172H75.2108C75.7262 111.172 75.986 111.429 75.986 111.909C75.986 112.469 75.7815 112.751 75.3428 112.751H71.9396L71.863 127.234C71.863 127.743 71.2709 128 70.1124 128C69.1029 128 68.6131 127.743 68.6131 127.234Z" fill="#333333"/>
<path d="M79.517 91.7298V89.0059C79.517 88.4712 80.3433 88.2144 81.1909 88.2144C82.0427 88.2397 82.8648 88.4965 82.8648 89.0059V91.7298C82.8648 92.2393 82.0385 92.4961 81.1909 92.4961C80.3433 92.4919 79.517 92.2393 79.517 91.7298ZM79.5425 121.1V96.8493C79.5425 96.3147 80.3433 96.0578 81.1909 96.0578C82.0427 96.0578 82.8648 96.3399 82.8648 96.8493V121.1C82.8648 121.382 82.2983 121.533 81.1909 121.533C80.2879 121.533 79.5425 121.407 79.5425 121.1Z" fill="#333333"/>
<path d="M100.681 121.255L93.0019 110.785L85.9911 121.18C85.8377 121.407 85.629 121.537 85.399 121.537C84.807 121.537 84.4194 121.129 84.4194 120.721C84.4194 120.464 86.8941 116.645 91.8434 109.231C86.3531 101.767 83.6229 97.9987 83.6229 97.9187C83.6229 97.5355 83.9083 97.1272 84.4492 96.6977C84.9901 96.2641 85.48 96.0367 85.9187 96.0367C86.1487 96.0367 86.3063 96.1125 86.434 96.2936L93.8325 106.28L100.405 96.3946C100.532 96.1673 100.715 96.062 100.946 96.062C101.486 96.062 101.951 96.4956 101.951 96.9293C101.951 97.2619 99.6294 100.904 94.9654 107.859C100.762 115.732 103.65 119.706 103.65 119.782C103.65 120.548 102.027 121.617 101.201 121.617C101.018 121.609 100.86 121.483 100.681 121.255Z" fill="#333333"/>
<path d="M100.715 108.697C100.715 105.156 101.67 102.175 103.578 99.7543C105.639 97.1314 108.45 95.8052 111.981 95.8052C118.089 95.8052 121.13 99.7796 121.13 107.728C121.13 108.137 120.666 108.57 120.227 108.57H104.068C104.068 114.098 106.879 119.55 112.548 119.55C116.028 119.55 119.324 117.31 119.324 113.336C119.324 112.827 119.554 112.57 120.019 112.545C120.508 112.545 120.871 112.827 120.871 113.336C120.871 116.06 119.942 118.178 118.059 119.655C116.385 120.956 114.426 121.592 112.13 121.592C104.579 121.584 100.715 115.218 100.715 108.697ZM119.269 107.168C119.218 102.916 117.876 97.464 112.467 97.5903C107.211 97.5398 104.608 102.634 104.119 107.168H119.269Z" fill="#333333"/>
<path d="M121.497 114.81C121.497 114.401 121.859 114.123 122.272 114.123C122.762 114.123 123.017 114.351 123.047 114.81C123.175 116.464 123.873 117.74 125.134 118.632C126.395 119.5 127.788 119.933 129.359 119.959C130.752 119.959 131.962 119.576 132.993 118.813C134.049 118.047 134.564 116.877 134.564 115.273C134.564 113.643 133.998 112.469 132.839 111.783C131.681 111.096 130.339 110.536 128.767 110.103C126.527 109.467 124.874 108.751 123.818 107.964C122.272 106.794 121.497 105.009 121.497 102.638C121.394 98.0029 125.828 95.7842 129.875 95.7842C133.717 95.7842 137.993 98.1039 137.942 102.533C137.942 102.967 137.58 103.219 137.167 103.219C136.677 103.219 136.421 102.992 136.391 102.533C136.264 100.878 135.565 99.628 134.304 98.7355C133.044 97.8429 131.651 97.4093 130.079 97.4093C128.686 97.4093 127.477 97.7924 126.42 98.5544C125.39 99.3207 124.874 100.491 124.874 102.095C124.874 103.724 125.441 104.899 126.599 105.585C127.758 106.272 129.1 106.832 130.671 107.265C132.912 107.901 134.564 108.617 135.621 109.404C137.167 110.574 137.942 112.359 137.942 114.73C138.044 119.365 133.61 121.584 129.564 121.584C125.722 121.584 121.446 119.293 121.497 114.81Z" fill="#333333"/>
</mask>
<g mask="url(#mask0_242_9193)">
<rect opacity="0.2" x="-19.2593" y="-17" width="24.6568" height="103.482" transform="rotate(30 -19.2593 -17)" fill="white"/>
<rect opacity="0.2" x="10.5127" y="-17" width="4.42388" height="103.482" transform="rotate(30 10.5127 -17)" fill="white"/>
<rect opacity="0.2" x="12.4432" y="-14.4974" width="2.27483" height="103.482" transform="rotate(30 12.4432 -14.4974)" fill="white"/>
</g>
<defs>
<linearGradient id="paint0_linear_242_9193" x1="69.3882" y1="69.1275" x2="128.891" y2="69.1275" gradientUnits="userSpaceOnUse">
<stop stop-color="#FDE48C"/>
<stop offset="1" stop-color="#F14784"/>
</linearGradient>
<linearGradient id="paint1_linear_242_9193" x1="12.0751" y1="69.3569" x2="72.1652" y2="69.3569" gradientUnits="userSpaceOnUse">
<stop stop-color="#FDE48C"/>
<stop offset="1" stop-color="#F14784"/>
</linearGradient>
<linearGradient id="paint2_linear_242_9193" x1="70.5127" y1="97.4211" x2="70.5205" y2="97.4211" gradientUnits="userSpaceOnUse">
<stop stop-color="#FDE48C"/>
<stop offset="1" stop-color="#F14784"/>
</linearGradient>
<linearGradient id="paint3_linear_242_9193" x1="70.4615" y1="97.3521" x2="70.5127" y2="97.3521" gradientUnits="userSpaceOnUse">
<stop stop-color="#FDE48C"/>
<stop offset="1" stop-color="#F14784"/>
</linearGradient>
<linearGradient id="paint4_linear_242_9193" x1="47.8198" y1="50.7988" x2="93.2112" y2="50.7988" gradientUnits="userSpaceOnUse">
<stop stop-color="#FDE48C"/>
<stop offset="1" stop-color="#F14784"/>
</linearGradient>
<linearGradient id="paint5_linear_242_9193" x1="65.0769" y1="5.3756" x2="75.9537" y2="5.3756" gradientUnits="userSpaceOnUse">
<stop stop-color="#FDE48C"/>
<stop offset="1" stop-color="#F14784"/>
</linearGradient>
<linearGradient id="paint6_linear_242_9193" x1="130.306" y1="34.58" x2="138.033" y2="34.58" gradientUnits="userSpaceOnUse">
<stop stop-color="#FDE48C"/>
<stop offset="1" stop-color="#F14784"/>
</linearGradient>
<linearGradient id="paint7_linear_242_9193" x1="2.96533" y1="34.5585" x2="10.6932" y2="34.5585" gradientUnits="userSpaceOnUse">
<stop stop-color="#FDE48C"/>
<stop offset="1" stop-color="#F14784"/>
</linearGradient>
<linearGradient id="paint8_linear_242_9193" x1="0" y1="82.7072" x2="141" y2="82.7072" gradientUnits="userSpaceOnUse">
<stop stop-color="#944CE4"/>
<stop offset="0.5568" stop-color="#F7CAD6"/>
<stop offset="1" stop-color="#9F5AE2"/>
</linearGradient>
<linearGradient id="paint9_linear_242_9193" x1="24.8578" y1="74.1037" x2="59.8814" y2="74.1037" gradientUnits="userSpaceOnUse">
<stop stop-color="#5D1BB2" stop-opacity="0.8"/>
<stop offset="0.1146" stop-color="#6322B4" stop-opacity="0.7082"/>
<stop offset="0.282" stop-color="#7336BA" stop-opacity="0.574"/>
<stop offset="0.4818" stop-color="#8D56C3" stop-opacity="0.414"/>
<stop offset="0.7065" stop-color="#B282D0" stop-opacity="0.2339"/>
<stop offset="0.9492" stop-color="#E1BBE0" stop-opacity="0.0395"/>
<stop offset="0.9984" stop-color="#EBC7E4" stop-opacity="0"/>
</linearGradient>
<linearGradient id="paint10_linear_242_9193" x1="86.9864" y1="75.0139" x2="138.45" y2="75.0139" gradientUnits="userSpaceOnUse">
<stop stop-color="#EBC7E4" stop-opacity="0"/>
<stop offset="1" stop-color="#5D1BB2" stop-opacity="0.5"/>
</linearGradient>
<linearGradient id="paint11_linear_242_9193" x1="2.55554" y1="75.0135" x2="54.0205" y2="75.0135" gradientUnits="userSpaceOnUse">
<stop stop-color="#5D1BB2" stop-opacity="0.5"/>
<stop offset="0.1956" stop-color="#601EB3" stop-opacity="0.4022"/>
<stop offset="0.3493" stop-color="#6828B6" stop-opacity="0.3254"/>
<stop offset="0.4887" stop-color="#7539BB" stop-opacity="0.2556"/>
<stop offset="0.6197" stop-color="#8950C1" stop-opacity="0.1901"/>
<stop offset="0.7449" stop-color="#A26ECA" stop-opacity="0.1276"/>
<stop offset="0.8656" stop-color="#C194D5" stop-opacity="0.0672"/>
<stop offset="0.9807" stop-color="#E4BFE2" stop-opacity="0.01"/>
<stop offset="1" stop-color="#EBC7E4" stop-opacity="0"/>
</linearGradient>
<linearGradient id="paint12_linear_242_9193" x1="116.127" y1="75.1311" x2="79.3046" y2="75.1311" gradientUnits="userSpaceOnUse">
<stop stop-color="#5D1BB2" stop-opacity="0.8"/>
<stop offset="0.1146" stop-color="#6322B4" stop-opacity="0.7082"/>
<stop offset="0.282" stop-color="#7336BA" stop-opacity="0.574"/>
<stop offset="0.4818" stop-color="#8D56C3" stop-opacity="0.414"/>
<stop offset="0.7065" stop-color="#B282D0" stop-opacity="0.2339"/>
<stop offset="0.9492" stop-color="#E1BBE0" stop-opacity="0.0395"/>
<stop offset="0.9984" stop-color="#EBC7E4" stop-opacity="0"/>
</linearGradient>
</defs>
</svg>
