<svg width="81" height="74" viewBox="0 0 81 74" fill="none" xmlns="http://www.w3.org/2000/svg">
<path opacity="0.8" d="M40.5073 64.8453C36.5826 47.1793 43.583 34.1736 74.0437 31.174C71.0536 61.7597 58.1025 68.7883 40.5073 64.8453Z" fill="url(#paint0_linear_904_11202)"/>
<g opacity="0.8">
<path opacity="0.8" d="M40.4731 64.8453C44.3978 47.1793 37.3974 34.1736 6.93677 31.174C9.9268 61.7597 22.8779 68.7883 40.4731 64.8453Z" fill="url(#paint1_linear_904_11202)"/>
</g>
<path opacity="0.8" d="M53.3214 41.7254C54.7136 51.7291 49.5557 59.077 40.5073 64.8478C25.2905 55.1439 21.0819 40.9762 40.5073 17.2298C48.3837 26.8576 52.3745 34.9081 53.3214 41.7254Z" fill="url(#paint2_linear_904_11202)"/>
<g opacity="0.7">
<path opacity="0.7" d="M40.5098 14.2744C42.2355 14.2744 43.6344 12.8698 43.6344 11.1372C43.6344 9.40457 42.2355 8 40.5098 8C38.7841 8 37.3852 9.40457 37.3852 11.1372C37.3852 12.8698 38.7841 14.2744 40.5098 14.2744Z" fill="url(#paint3_linear_904_11202)"/>
</g>
<g opacity="0.7">
<path opacity="0.7" d="M77.0753 30.4075C78.301 30.4075 79.2946 29.4099 79.2946 28.1793C79.2946 26.9486 78.301 25.951 77.0753 25.951C75.8496 25.951 74.856 26.9486 74.856 28.1793C74.856 29.4099 75.8496 30.4075 77.0753 30.4075Z" fill="url(#paint4_linear_904_11202)"/>
</g>
<g opacity="0.7">
<path opacity="0.7" d="M3.92228 30.3927C5.14796 30.3927 6.14156 29.3951 6.14156 28.1645C6.14156 26.9339 5.14796 25.9363 3.92228 25.9363C2.69661 25.9363 1.703 26.9339 1.703 28.1645C1.703 29.3951 2.69661 30.3927 3.92228 30.3927Z" fill="url(#paint5_linear_904_11202)"/>
</g>
<path opacity="0.9" d="M81 49.5254V49.8595C81 58.7749 75.8641 66.0025 68.4453 66.0025H13.4331C6.01432 66.0025 0 58.7749 0 49.8595V49.523C0 47.5896 1.79353 46.1622 3.67025 46.602C19.2908 50.2624 25.633 47.6657 28.8849 47.7861C29.6189 47.7861 30.3334 47.8573 31.0234 47.9925C35.2907 48.8376 38.6233 52.2008 40.5073 56.8021C42.6973 51.4588 47.7059 47.7861 52.9984 47.7861C53.2602 47.7763 53.5367 47.7836 53.8352 47.8057C57.2119 48.0416 63.0745 49.9627 77.3273 46.6044C78.1201 46.4177 78.9006 46.5651 79.5368 46.9435C80.4005 47.4594 81 48.4076 81 49.5254Z" fill="url(#paint6_linear_904_11202)"/>
<path opacity="0.7" d="M35.4326 54.4585C35.4326 54.4585 19.237 54.6354 15.8041 53.0434C14.0889 52.2474 14.0889 51.2549 14.5171 50.459C14.9795 49.5991 15.8726 49.0611 16.8416 48.9727L24.505 48.2676C24.505 48.2676 31.224 47.452 33.3821 48.7639L35.4326 54.4585Z" fill="url(#paint7_linear_904_11202)"/>
<path d="M79.5343 46.941C79.1918 53.9401 69.769 56.8513 53.867 57.0208L49.9692 48.2578C50.6592 48.1202 51.3713 47.9212 52.1078 47.9212C52.4748 47.9089 53.0669 47.8672 53.8328 47.8033C57.2094 48.0391 63.072 49.9603 77.3249 46.602C78.1201 46.4177 78.9006 46.5627 79.5343 46.941Z" fill="url(#paint8_linear_904_11202)"/>
<path d="M1.4681 46.941C1.81066 53.9401 11.2334 56.8513 27.1354 57.0208L31.0332 48.2578C30.3432 48.1202 29.6312 47.9212 28.8947 47.9212C28.5276 47.9089 27.9355 47.8672 27.1696 47.8033C23.793 48.0391 17.9304 49.9603 3.67759 46.602C2.88482 46.4177 2.10428 46.5627 1.4681 46.941Z" fill="url(#paint9_linear_904_11202)"/>
<path opacity="0.7" d="M45.5576 55.0579C45.5576 55.0579 61.7532 55.2348 65.1861 53.6428C66.9013 52.8469 66.9013 51.8544 66.4731 51.0584C66.0107 50.1986 65.1176 49.6606 64.1487 49.5721L56.4852 48.867C56.4852 48.867 49.7662 48.0514 47.6081 49.3633L45.5576 55.0579Z" fill="url(#paint10_linear_904_11202)"/>
<defs>
<linearGradient id="paint0_linear_904_11202" x1="39.5118" y1="48.5096" x2="74.0425" y2="48.5096" gradientUnits="userSpaceOnUse">
<stop stop-color="#FDE48C"/>
<stop offset="1" stop-color="#F14784"/>
</linearGradient>
<linearGradient id="paint1_linear_904_11202" x1="6.93789" y1="48.5096" x2="41.4686" y2="48.5096" gradientUnits="userSpaceOnUse">
<stop stop-color="#FDE48C"/>
<stop offset="1" stop-color="#F14784"/>
</linearGradient>
<linearGradient id="paint2_linear_904_11202" x1="27.4698" y1="41.0407" x2="53.5478" y2="41.0407" gradientUnits="userSpaceOnUse">
<stop stop-color="#FDE48C"/>
<stop offset="1" stop-color="#F14784"/>
</linearGradient>
<linearGradient id="paint3_linear_904_11202" x1="37.3846" y1="11.1368" x2="43.633" y2="11.1368" gradientUnits="userSpaceOnUse">
<stop stop-color="#FDE48C"/>
<stop offset="1" stop-color="#F14784"/>
</linearGradient>
<linearGradient id="paint4_linear_904_11202" x1="74.8565" y1="28.1782" x2="79.2959" y2="28.1782" gradientUnits="userSpaceOnUse">
<stop stop-color="#FDE48C"/>
<stop offset="1" stop-color="#F14784"/>
</linearGradient>
<linearGradient id="paint5_linear_904_11202" x1="1.70354" y1="28.1657" x2="6.14293" y2="28.1657" gradientUnits="userSpaceOnUse">
<stop stop-color="#FDE48C"/>
<stop offset="1" stop-color="#F14784"/>
</linearGradient>
<linearGradient id="paint6_linear_904_11202" x1="0" y1="56.2606" x2="80.9997" y2="56.2606" gradientUnits="userSpaceOnUse">
<stop stop-color="#944CE4"/>
<stop offset="0.5568" stop-color="#F7CAD6"/>
<stop offset="1" stop-color="#9F5AE2"/>
</linearGradient>
<linearGradient id="paint7_linear_904_11202" x1="14.28" y1="51.2415" x2="35.4332" y2="51.2415" gradientUnits="userSpaceOnUse">
<stop stop-color="#5D1BB2" stop-opacity="0.8"/>
<stop offset="0.1146" stop-color="#6322B4" stop-opacity="0.7082"/>
<stop offset="0.282" stop-color="#7336BA" stop-opacity="0.574"/>
<stop offset="0.4818" stop-color="#8D56C3" stop-opacity="0.414"/>
<stop offset="0.7065" stop-color="#B282D0" stop-opacity="0.2339"/>
<stop offset="0.9492" stop-color="#E1BBE0" stop-opacity="0.0395"/>
<stop offset="0.9984" stop-color="#EBC7E4" stop-opacity="0"/>
</linearGradient>
<linearGradient id="paint8_linear_904_11202" x1="49.9709" y1="51.7722" x2="79.5352" y2="51.7722" gradientUnits="userSpaceOnUse">
<stop stop-color="#EBC7E4" stop-opacity="0"/>
<stop offset="1" stop-color="#5D1BB2" stop-opacity="0.5"/>
</linearGradient>
<linearGradient id="paint9_linear_904_11202" x1="31.0333" y1="51.7722" x2="1.46918" y2="51.7722" gradientUnits="userSpaceOnUse">
<stop stop-color="#EBC7E4" stop-opacity="0"/>
<stop offset="1" stop-color="#5D1BB2" stop-opacity="0.5"/>
</linearGradient>
<linearGradient id="paint10_linear_904_11202" x1="66.7112" y1="51.8406" x2="45.5579" y2="51.8406" gradientUnits="userSpaceOnUse">
<stop stop-color="#5D1BB2" stop-opacity="0.8"/>
<stop offset="0.1146" stop-color="#6322B4" stop-opacity="0.7082"/>
<stop offset="0.282" stop-color="#7336BA" stop-opacity="0.574"/>
<stop offset="0.4818" stop-color="#8D56C3" stop-opacity="0.414"/>
<stop offset="0.7065" stop-color="#B282D0" stop-opacity="0.2339"/>
<stop offset="0.9492" stop-color="#E1BBE0" stop-opacity="0.0395"/>
<stop offset="0.9984" stop-color="#EBC7E4" stop-opacity="0"/>
</linearGradient>
</defs>
</svg>
