<svg width="40" height="30" viewBox="0 0 40 30" fill="none" xmlns="http://www.w3.org/2000/svg">
<path fill-rule="evenodd" clip-rule="evenodd" d="M0 0H40V30H0V0Z" fill="#229E45"/>
<path fill-rule="evenodd" clip-rule="evenodd" d="M20.0876 27.25L38.9314 15.0188L19.9751 2.75L1.06885 15.0437L20.0876 27.25Z" fill="#F8E509"/>
<path fill-rule="evenodd" clip-rule="evenodd" d="M28.3 15C28.3 19.3937 24.7313 22.9562 20.325 22.9562C18.7504 22.9538 17.212 22.4845 15.904 21.6078C14.5961 20.7311 13.5775 19.4863 12.9769 18.0308C12.3764 16.5752 12.2208 14.9743 12.53 13.4304C12.8391 11.8865 13.5991 10.4689 14.7138 9.35679C15.8285 8.24472 17.2479 7.4881 18.7925 7.18258C20.3372 6.87706 21.9377 7.03637 23.3918 7.64035C24.846 8.24434 26.0884 9.26589 26.962 10.5759C27.8356 11.8858 28.3012 13.4254 28.3 15V15Z" fill="#2B49A3"/>
<path fill-rule="evenodd" clip-rule="evenodd" d="M17.7062 19.7687L17.4562 19.6249L17.2062 19.7499L17.2624 19.4687L17.0624 19.2562L17.3437 19.2249L17.4812 18.9749L17.5999 19.2374L17.8749 19.2874L17.6687 19.4749L17.7062 19.7687ZM23.0437 21.1187L22.7999 20.9749L22.5499 21.0999L22.5999 20.8187L22.4062 20.6124L22.6874 20.5812L22.8187 20.3249L22.9437 20.5874L23.2187 20.6374L23.0062 20.8312L23.0437 21.1187ZM20.7437 18.9562L20.5312 18.8312L20.3124 18.9437L20.3624 18.6999L20.1874 18.5187L20.4374 18.4937L20.5499 18.2687L20.6499 18.4999L20.8937 18.5437L20.7062 18.7124L20.7437 18.9562ZM26.1437 18.1812L25.9312 18.0562L25.7124 18.1687L25.7624 17.9249L25.5937 17.7499L25.8374 17.7249L25.9499 17.5062L26.0499 17.7312L26.2874 17.7749L26.1062 17.9374L26.1437 18.1812ZM20.6499 16.5624L20.3999 16.4249L20.1499 16.5499L20.1999 16.2624L20.0062 16.0562L20.2874 16.0249L20.4187 15.7687L20.5437 16.0312L20.8187 16.0812L20.6062 16.2812L20.6499 16.5624ZM14.0687 14.0937L13.8187 13.9562L13.5687 14.0812L13.6312 13.7937L13.4249 13.5874L13.7124 13.5562L13.8374 13.2999L13.9624 13.5624L14.2374 13.6124L14.0312 13.8062L14.0687 14.0937ZM14.8624 17.3812L14.6124 17.2374L14.3624 17.3624L14.4187 17.0812L14.2187 16.8749L14.4999 16.8374L14.6312 16.5874L14.7562 16.8499L15.0312 16.8999L14.8249 17.0937L14.8624 17.3812ZM23.0749 12.8874L22.8499 12.7624L22.6249 12.8749L22.6749 12.6249L22.4999 12.4374L22.7499 12.4062L22.8687 12.1812L22.9749 12.4187L23.2249 12.4624L23.0374 12.6312L23.0749 12.8874ZM22.6187 15.0249L22.4499 14.9249L22.2687 15.0124L22.3062 14.8124L22.1687 14.6687L22.3687 14.6437L22.4624 14.4687L22.5437 14.6562L22.7312 14.6874L22.5937 14.8249L22.6187 15.0249ZM13.7062 17.9749L13.5374 17.8812L13.3687 17.9624L13.4062 17.7749L13.2749 17.6374L13.4624 17.6124L13.5499 17.4437L13.6312 17.6187L13.8187 17.6562L13.6749 17.7812L13.7062 17.9749ZM26.1874 18.7374L26.0499 18.6687L25.9124 18.7312L25.9437 18.5874L25.8374 18.4874L25.9874 18.4687L26.0624 18.3437L26.1249 18.4687L26.2812 18.4999L26.1624 18.5937" fill="#FFFFEF"/>
<path fill-rule="evenodd" clip-rule="evenodd" d="M13.7062 17.9751L13.5374 17.8813L13.3687 17.9626L13.4062 17.7751L13.2749 17.6376L13.4624 17.6126L13.5499 17.4438L13.6312 17.6188L13.8187 17.6563L13.6749 17.7813" fill="#FFFFEF"/>
<path fill-rule="evenodd" clip-rule="evenodd" d="M13.7062 17.9749L13.5374 17.8812L13.3687 17.9624L13.4062 17.7749L13.2749 17.6374L13.4624 17.6124L13.5499 17.4437L13.6312 17.6187L13.8187 17.6562L13.6749 17.7812L13.7062 17.9749ZM16.3187 17.9687L16.1562 17.8812L15.9874 17.9624L16.0249 17.7749L15.8937 17.6374L16.0812 17.6124L16.1687 17.4437L16.2499 17.6187L16.4374 17.6499L16.2937 17.7812L16.3187 17.9687ZM15.9937 18.8437L15.8312 18.7499L15.6624 18.8374L15.6999 18.6499L15.5687 18.5062L15.7562 18.4812L15.8437 18.3124L15.9249 18.4874L16.1124 18.5249L15.9687 18.6499L15.9937 18.8437ZM21.4312 17.2624L21.2687 17.1624L21.0937 17.2499L21.1312 17.0624L21.0062 16.9187L21.1937 16.8999L21.2812 16.7312L21.3562 16.9062L21.5437 16.9374L21.4062 17.0687L21.4312 17.2624ZM19.8374 17.2562L19.6687 17.1624L19.4999 17.2499L19.5374 17.0624L19.4124 16.9187L19.5999 16.8999L19.6874 16.7249L19.7624 16.9062L19.9499 16.9374L19.8124 17.0687L19.8374 17.2562ZM15.5124 16.7062L15.4062 16.6437L15.2999 16.6937L15.3249 16.5749L15.2437 16.4874L15.3624 16.4749L15.4124 16.3687L15.4624 16.4812L15.5812 16.4999L15.4937 16.5812L15.5124 16.7062ZM25.9812 19.4187L25.8187 19.3249L25.6499 19.4124L25.6874 19.2249L25.5562 19.0812L25.7437 19.0562L25.8312 18.8874L25.9124 19.0624L26.0999 19.0999L25.9562 19.2249L25.9812 19.4187ZM24.6562 19.5999L24.5187 19.5124L24.3749 19.5874L24.4062 19.4249L24.2999 19.3124L24.4562 19.2937L24.5312 19.1499L24.5937 19.2999L24.7499 19.3249L24.6312 19.4374L24.6562 19.5999ZM25.2812 19.5812L25.1562 19.5062L25.0249 19.5687L25.0499 19.4249L24.9499 19.3187L25.0937 19.2999L25.1624 19.1749L25.2249 19.2999L25.3687 19.3312L25.2624 19.4312L25.2812 19.5812ZM27.0812 18.0062L26.9562 17.9437L26.8312 18.0062L26.8624 17.8624L26.7624 17.7562L26.9062 17.7374L26.9687 17.6124L27.0312 17.7437L27.1624 17.7687L27.0624 17.8687L27.0812 18.0062ZM24.6374 20.4812L24.4812 20.3937L24.3124 20.4687L24.3499 20.2937L24.2249 20.1687L24.4124 20.1499L24.4937 19.9937L24.5687 20.1562L24.7562 20.1874L24.6124 20.3062L24.6374 20.4812ZM24.6499 21.1937L24.4999 21.1062L24.3499 21.1874L24.3874 21.0124L24.2687 20.8874L24.4374 20.8624L24.5124 20.7062L24.5812 20.8687L24.7499 20.8999L24.6249 21.0249L24.6499 21.1937ZM23.4374 19.5812L23.3187 19.5062L23.1937 19.5687L23.2187 19.4312L23.1249 19.3249L23.2624 19.3124L23.3249 19.1874L23.3874 19.3124L23.5249 19.3374L23.4249 19.4374L23.4374 19.5812ZM22.3124 19.5812L22.1874 19.5062L22.0624 19.5687L22.0937 19.4312L21.9937 19.3249L22.1374 19.3124L22.1999 19.1874L22.2624 19.3124L22.3937 19.3374L22.2937 19.4374L22.3124 19.5812ZM20.3937 17.8999L20.2687 17.8312L20.1437 17.8937L20.1749 17.7499L20.0749 17.6499L20.2124 17.6312L20.2749 17.5062L20.3374 17.6312L20.4749 17.6624L20.3749 17.7562L20.3937 17.8999ZM20.6062 21.3187L20.5062 21.2624L20.3937 21.3187L20.4187 21.1937L20.3374 21.1062L20.4562 21.0937L20.5124 20.9874L20.5624 21.0999L20.6812 21.1187L20.5937 21.1999L20.6062 21.3187ZM17.7062 15.7874L17.4562 15.6437L17.2062 15.7687L17.2624 15.4874L17.0624 15.2812L17.3437 15.2437L17.4812 14.9937L17.5999 15.2562L17.8749 15.3062L17.6687 15.4999" fill="#FFFFEF"/>
<path fill-rule="evenodd" clip-rule="evenodd" d="M27.775 17.8624C27.9298 17.4606 28.0511 17.0467 28.1375 16.6249C23.9 12.9061 19.1813 10.9999 13.2188 11.3936C13.0025 11.8121 12.8247 12.2493 12.6875 12.6999C19.75 12.0249 24.9375 15.1499 27.775 17.8624Z" fill="white"/>
<path d="M25.8752 15.775L26.0189 15.8562C25.9975 15.8987 25.9909 15.9471 26.0002 15.9937C26.0148 16.039 26.0461 16.077 26.0877 16.1C26.1314 16.1312 26.1752 16.15 26.2127 16.1437C26.2502 16.1437 26.2752 16.125 26.2939 16.1C26.3048 16.0834 26.3093 16.0634 26.3064 16.0437C26.3013 16.0207 26.2906 15.9992 26.2752 15.9812C26.2627 15.9625 26.2314 15.9187 26.1814 15.8687C26.1301 15.8157 26.0916 15.7516 26.0689 15.6812C26.0534 15.628 26.0574 15.571 26.0803 15.5205C26.1033 15.47 26.1436 15.4295 26.1939 15.4062C26.2394 15.3873 26.2896 15.3829 26.3377 15.3937C26.3965 15.4073 26.4518 15.4328 26.5002 15.4687C26.5877 15.5312 26.6439 15.5937 26.6627 15.6687C26.6713 15.7038 26.6725 15.7403 26.666 15.7759C26.6595 15.8114 26.6456 15.8452 26.6252 15.875L26.4752 15.7812C26.4939 15.7437 26.5002 15.7062 26.4877 15.675C26.4814 15.6437 26.4564 15.6125 26.4127 15.5875C26.3806 15.5617 26.3413 15.5464 26.3002 15.5437C26.2889 15.5434 26.2776 15.5461 26.2677 15.5516C26.2578 15.5571 26.2496 15.5652 26.2439 15.575C26.2314 15.5937 26.2314 15.6125 26.2377 15.6375C26.2439 15.6625 26.2752 15.7125 26.3377 15.775C26.4002 15.8375 26.4377 15.8937 26.4627 15.9312C26.485 15.9722 26.4951 16.0187 26.4918 16.0652C26.4885 16.1118 26.4719 16.1564 26.4439 16.1937C26.4147 16.2362 26.3733 16.2689 26.3252 16.2875C26.2783 16.3091 26.2259 16.3156 26.1752 16.3062C26.1189 16.2937 26.0627 16.2687 26.0002 16.225C25.9064 16.1625 25.8502 16.0937 25.8314 16.0187C25.8111 15.9337 25.8245 15.8441 25.8689 15.7687L25.8752 15.775ZM25.1502 15.3L25.3064 15.3812C25.2871 15.4244 25.2827 15.4728 25.2939 15.5187C25.3099 15.5616 25.341 15.5972 25.3814 15.6187C25.4314 15.65 25.4689 15.6625 25.5064 15.6562C25.5439 15.6562 25.5689 15.6375 25.5877 15.6062C25.5972 15.5914 25.6016 15.5738 25.6002 15.5562C25.6002 15.5375 25.5877 15.5125 25.5689 15.4937C25.5369 15.4551 25.5036 15.4176 25.4689 15.3812C25.4002 15.3125 25.3564 15.2562 25.3439 15.2062C25.3337 15.1741 25.3307 15.1401 25.335 15.1066C25.3393 15.0731 25.3509 15.041 25.3689 15.0125C25.3927 14.9739 25.4276 14.9434 25.4689 14.925C25.5119 14.9052 25.5598 14.8987 25.6064 14.9062C25.6643 14.916 25.7195 14.9372 25.7689 14.9687C25.8627 15.0312 25.9189 15.0937 25.9377 15.1625C25.9491 15.1976 25.9527 15.2348 25.9484 15.2715C25.9441 15.3082 25.9319 15.3435 25.9127 15.375L25.7564 15.2875C25.7752 15.2437 25.7814 15.2125 25.7689 15.1812C25.7564 15.15 25.7314 15.1187 25.6877 15.0937C25.6531 15.0689 25.6115 15.0558 25.5689 15.0562C25.5587 15.0569 25.5487 15.0602 25.54 15.0656C25.5313 15.0711 25.5241 15.0786 25.5189 15.0875C25.5064 15.1062 25.5064 15.125 25.5127 15.15C25.5189 15.175 25.5564 15.225 25.6189 15.2875C25.6814 15.35 25.7252 15.4 25.7439 15.4375C25.769 15.4767 25.7823 15.5222 25.7823 15.5687C25.7823 15.6153 25.769 15.6608 25.7439 15.7C25.717 15.7436 25.6779 15.7784 25.6314 15.8C25.5846 15.8216 25.5322 15.8281 25.4814 15.8187C25.4171 15.8079 25.3555 15.7845 25.3002 15.75C25.2194 15.7069 25.1572 15.6358 25.1252 15.55C25.101 15.4666 25.11 15.377 25.1502 15.3V15.3ZM24.2627 15.0625L24.7189 14.3125L25.2689 14.6562L25.1939 14.7812L24.7939 14.5312L24.6939 14.7L25.0689 14.9312L24.9877 15.0562L24.6127 14.825L24.4877 15.0312L24.9064 15.2812L24.8314 15.4062L24.2689 15.0625H24.2627ZM22.9689 14L23.0377 13.875L23.3752 14.0437L23.2189 14.3562C23.1689 14.3687 23.1064 14.375 23.0314 14.3687C22.9594 14.3608 22.8895 14.3396 22.8252 14.3062C22.7496 14.2694 22.6849 14.2134 22.6377 14.1437C22.5947 14.0791 22.5729 14.0026 22.5752 13.925C22.5784 13.8442 22.5997 13.7651 22.6377 13.6937C22.6752 13.6186 22.7311 13.5541 22.8002 13.5062C22.8663 13.4606 22.9449 13.4365 23.0252 13.4375C23.0877 13.4375 23.1502 13.4562 23.2252 13.5C23.3252 13.5437 23.3877 13.6062 23.4189 13.675C23.4514 13.7432 23.4581 13.821 23.4377 13.8937L23.2689 13.8437C23.2793 13.8019 23.2749 13.7577 23.2564 13.7187C23.2377 13.6812 23.2064 13.6562 23.1564 13.6312C23.1273 13.6146 23.095 13.6043 23.0616 13.6011C23.0282 13.5979 22.9945 13.6018 22.9627 13.6125C22.9002 13.6312 22.8439 13.6875 22.8002 13.775C22.7564 13.8625 22.7377 13.9437 22.7564 14.0125C22.7651 14.0451 22.7807 14.0754 22.8023 14.1013C22.8239 14.1273 22.8509 14.1481 22.8814 14.1625C22.9127 14.1812 22.9502 14.1937 22.9877 14.1937C23.025 14.1994 23.0629 14.1994 23.1002 14.1937L23.1502 14.0937L22.9689 14V14ZM17.3314 12.6062L17.4564 11.7312L17.7189 11.775L17.7877 12.3875L18.0314 11.825L18.2939 11.8625L18.1689 12.725L18.0002 12.7L18.1064 12.0187L17.8314 12.675L17.6627 12.65L17.5939 11.9438L17.4939 12.6312L17.3314 12.6062V12.6062ZM16.4502 12.5L16.5314 11.625L17.1752 11.6875L17.1627 11.8375L16.6939 11.7937L16.6752 11.9812L17.1127 12.025L17.0939 12.175L16.6564 12.1313L16.6377 12.3687L17.1252 12.4125L17.1127 12.5625L16.4502 12.5V12.5Z" fill="#309E3A"/>
<path d="M13.5313 11.9563C13.5313 11.8626 13.55 11.7938 13.575 11.7313C13.5969 11.6869 13.6266 11.6467 13.6625 11.6126C13.6946 11.5803 13.7328 11.5548 13.775 11.5376C13.8375 11.5188 13.9 11.5063 13.9625 11.5063C14.0938 11.5063 14.1938 11.5563 14.275 11.6313C14.3137 11.6791 14.3425 11.7341 14.3596 11.7932C14.3768 11.8522 14.382 11.914 14.375 11.9751C14.375 12.1126 14.3313 12.2251 14.25 12.3063C14.2083 12.3449 14.1589 12.3743 14.105 12.3926C14.0512 12.4109 13.9941 12.4177 13.9375 12.4126C13.8817 12.4132 13.8263 12.4024 13.7747 12.3809C13.7231 12.3594 13.6765 12.3277 13.6375 12.2876C13.5597 12.1955 13.5216 12.0765 13.5313 11.9563V11.9563Z" fill="#309E3A"/>
<path d="M13.7124 11.9564C13.7124 12.0501 13.7312 12.1251 13.7749 12.1814C13.8187 12.2314 13.8749 12.2626 13.9499 12.2626C13.9823 12.2649 14.0149 12.2599 14.0452 12.248C14.0754 12.2361 14.1027 12.2176 14.1249 12.1939C14.1687 12.1439 14.1874 12.0689 14.1937 11.9626C14.1937 11.8626 14.1812 11.7876 14.1312 11.7376C14.1108 11.7124 14.0851 11.6921 14.0559 11.678C14.0267 11.664 13.9948 11.6566 13.9624 11.6564C13.9295 11.6553 13.8968 11.6615 13.8666 11.6744C13.8363 11.6874 13.8093 11.7068 13.7874 11.7314C13.7374 11.7814 13.7187 11.8564 13.7124 11.9564V11.9564Z" fill="#F7FFFF"/>
<path d="M14.5625 12.4062L14.575 11.5312H14.95C15.0437 11.5312 15.1062 11.5437 15.15 11.5625C15.1937 11.575 15.225 11.6063 15.25 11.6438C15.275 11.6813 15.2875 11.7313 15.2875 11.7875C15.288 11.8476 15.2657 11.9057 15.225 11.95C15.1788 11.9933 15.1193 12.0197 15.0562 12.025L15.15 12.1C15.175 12.125 15.2062 12.175 15.2437 12.2437L15.35 12.4187H15.1375L15.0125 12.2188L14.925 12.0938C14.9098 12.0766 14.8905 12.0636 14.8687 12.0562C14.8403 12.048 14.8109 12.0437 14.7812 12.0437H14.7437V12.4062H14.5625V12.4062Z" fill="#309E3A"/>
<path d="M14.75 11.9062H14.875C14.9625 11.9062 15.0188 11.9062 15.0375 11.8937C15.0563 11.8937 15.075 11.8749 15.0875 11.8624C15.1 11.8499 15.1062 11.8187 15.1062 11.7999C15.1062 11.7624 15.1 11.7374 15.0813 11.7249C15.0688 11.7062 15.0438 11.6937 15.0188 11.6874H14.8938L14.75 11.6812V11.8999V11.9062Z" fill="white"/>
<path d="M15.5623 11.575L15.8873 11.5937C15.9561 11.5937 16.0123 11.6 16.0498 11.6125C16.0984 11.6301 16.1416 11.6603 16.1748 11.7C16.2108 11.7436 16.2364 11.7949 16.2498 11.85C16.2686 11.9062 16.2748 11.975 16.2686 12.0562C16.2685 12.12 16.2579 12.1833 16.2373 12.2437C16.2123 12.3062 16.1748 12.3562 16.1311 12.3937C16.0946 12.4237 16.0519 12.4451 16.0061 12.4562C15.9686 12.4687 15.9123 12.4687 15.8498 12.4687L15.5186 12.45L15.5623 11.575V11.575Z" fill="#309E3A"/>
<path d="M15.731 11.7312L15.6997 12.3125H15.9372C15.9685 12.3125 15.9935 12.3 16.0122 12.2812C16.031 12.2625 16.0497 12.2375 16.0622 12.2C16.0747 12.1625 16.0872 12.1062 16.0872 12.0375L16.0809 11.8812C16.072 11.8482 16.0548 11.8181 16.031 11.7937C16.0102 11.7728 15.9843 11.7577 15.956 11.75C15.9087 11.7394 15.8606 11.7332 15.8122 11.7312H15.731V11.7312Z" fill="white"/>
<path d="M19.8501 13.1376L20.0563 12.2876L20.3313 12.3501L20.5313 12.4126C20.5751 12.4376 20.6126 12.4751 20.6313 12.5313C20.6563 12.5813 20.6563 12.6376 20.6438 12.7063C20.6313 12.7563 20.6126 12.8001 20.5813 12.8313C20.5584 12.8588 20.5297 12.8809 20.4973 12.896C20.4649 12.9111 20.4296 12.9189 20.3938 12.9188C20.3501 12.9188 20.2876 12.9063 20.2063 12.8876L20.1001 12.8563L20.0251 13.1813L19.8501 13.1376V13.1376Z" fill="#309E3A"/>
<path d="M20.1877 12.4751L20.1377 12.7126L20.2314 12.7376C20.2939 12.7501 20.3439 12.7626 20.3689 12.7563C20.3933 12.753 20.4159 12.7421 20.4338 12.7254C20.4517 12.7086 20.464 12.6866 20.4689 12.6626C20.4689 12.6313 20.4689 12.6063 20.4564 12.5813C20.4427 12.5559 20.4206 12.5361 20.3939 12.5251L20.2752 12.4938L20.1939 12.4751H20.1877Z" fill="white"/>
<path d="M20.6626 13.3812L20.9563 12.5562L21.3001 12.6812C21.3938 12.7124 21.4501 12.7437 21.4876 12.7687C21.5188 12.7999 21.5438 12.8312 21.5501 12.8812C21.5563 12.9312 21.5626 12.9749 21.5501 13.0249C21.5251 13.0874 21.4876 13.1312 21.4376 13.1624C21.3876 13.1874 21.3251 13.1937 21.2501 13.1812C21.2751 13.2124 21.3001 13.2437 21.3126 13.2812L21.3626 13.4499L21.4001 13.6437L21.2063 13.5749L21.1438 13.3499C21.1325 13.299 21.1179 13.2489 21.1001 13.1999C21.0918 13.1805 21.0789 13.1633 21.0626 13.1499C21.0501 13.1312 21.0251 13.1187 20.9813 13.1062L20.9501 13.0937L20.8251 13.4437L20.6626 13.3812V13.3812Z" fill="#309E3A"/>
<path d="M20.9999 12.9624L21.1187 13.0061C21.1999 13.0374 21.2499 13.0499 21.2749 13.0499C21.2937 13.0499 21.3124 13.0499 21.3312 13.0311C21.3499 13.0186 21.3624 12.9999 21.3687 12.9749C21.3812 12.9499 21.3812 12.9249 21.3687 12.8999C21.3594 12.8756 21.3416 12.8556 21.3187 12.8436L21.1937 12.7999L21.0687 12.7561L20.9937 12.9624H20.9999Z" fill="white"/>
<path d="M21.6877 13.35C21.7091 13.2768 21.7453 13.2087 21.7939 13.15C21.8255 13.1122 21.8636 13.0805 21.9064 13.0562C21.9451 13.0343 21.9875 13.0195 22.0314 13.0125C22.0939 13.0125 22.1564 13.0125 22.2251 13.0375C22.281 13.0513 22.3333 13.0768 22.3786 13.1124C22.4238 13.1479 22.461 13.1927 22.4876 13.2437C22.5376 13.3437 22.5376 13.4625 22.5001 13.6C22.4692 13.7181 22.3928 13.8192 22.2876 13.8812C22.1939 13.9375 22.0814 13.9437 21.9626 13.9062C21.9069 13.892 21.8548 13.8663 21.8096 13.8308C21.7644 13.7953 21.7271 13.7507 21.7002 13.7C21.6751 13.6453 21.6611 13.5863 21.659 13.5262C21.6568 13.4661 21.6666 13.4062 21.6877 13.35V13.35Z" fill="#309E3A"/>
<path d="M21.8625 13.4C21.8375 13.4938 21.8312 13.575 21.8625 13.6375C21.8937 13.7 21.9375 13.7375 22.0062 13.7625C22.0687 13.7813 22.1312 13.775 22.1937 13.7375C22.2562 13.7063 22.2937 13.6375 22.325 13.5375C22.3562 13.4438 22.3562 13.3688 22.325 13.3063C22.3126 13.2766 22.2939 13.25 22.2701 13.2284C22.2464 13.2068 22.2181 13.1907 22.1875 13.1813C22.1567 13.1706 22.124 13.1668 22.0917 13.1701C22.0593 13.1733 22.028 13.1835 22 13.2C21.9375 13.2375 21.8937 13.3 21.8625 13.4V13.4Z" fill="white"/>
<path d="M23.3936 14.5687L23.7936 13.7937L24.1248 13.9625C24.1872 13.9924 24.2443 14.0325 24.2936 14.0812C24.3248 14.1125 24.3436 14.15 24.3436 14.2C24.3436 14.25 24.3436 14.2937 24.3186 14.3375C24.2945 14.3936 24.2498 14.4384 24.1936 14.4625C24.1311 14.475 24.0686 14.475 23.9998 14.45C24.0248 14.4875 24.0373 14.525 24.0498 14.5562C24.0623 14.5937 24.0686 14.65 24.0748 14.7312L24.0873 14.9312L23.8998 14.8375L23.8748 14.6062C23.8718 14.5538 23.8656 14.5016 23.8561 14.45C23.8518 14.4266 23.841 14.4049 23.8248 14.3875L23.7498 14.3437L23.7186 14.325L23.5498 14.65L23.3936 14.5687V14.5687Z" fill="#309E3A"/>
<path d="M23.7812 14.2L23.9 14.2625C23.975 14.3 24.025 14.325 24.0437 14.325C24.0625 14.325 24.0875 14.325 24.1062 14.3125C24.125 14.3062 24.1375 14.2875 24.15 14.2625C24.1625 14.2375 24.1687 14.2125 24.1625 14.1875C24.1548 14.1626 24.1395 14.1408 24.1187 14.125C24.0822 14.1025 24.0446 14.0817 24.0062 14.0625L23.8812 14L23.7812 14.2V14.2Z" fill="white"/>
<path d="M26.6314 16.1686C26.6718 16.1043 26.725 16.049 26.7876 16.0061C26.8297 15.9791 26.8763 15.9601 26.9251 15.9498C26.9705 15.9406 27.0173 15.9406 27.0626 15.9498C27.1251 15.9623 27.1814 15.9873 27.2376 16.0248C27.2863 16.0551 27.3281 16.0952 27.3603 16.1426C27.3926 16.1899 27.4147 16.2435 27.4251 16.2998C27.4439 16.4061 27.4126 16.5248 27.3376 16.6436C27.2749 16.7468 27.1737 16.821 27.0564 16.8498C27.0004 16.8619 26.9425 16.862 26.8865 16.8502C26.8305 16.8383 26.7777 16.8148 26.7314 16.7811C26.6827 16.7508 26.641 16.7107 26.6087 16.6633C26.5764 16.616 26.5543 16.5624 26.5439 16.5061C26.5251 16.3936 26.5564 16.2811 26.6314 16.1686Z" fill="#309E3A"/>
<path d="M26.7877 16.2686C26.7252 16.3499 26.7065 16.4249 26.719 16.4936C26.7236 16.5253 26.7349 16.5556 26.7521 16.5825C26.7694 16.6095 26.7922 16.6324 26.819 16.6499C26.8815 16.6936 26.944 16.7061 27.0065 16.6874C27.069 16.6686 27.1315 16.6249 27.1877 16.5374C27.244 16.4499 27.269 16.3749 27.2565 16.3124C27.2502 16.2499 27.2127 16.1936 27.1565 16.1499C27.1002 16.1061 27.0315 16.0999 26.969 16.1186C26.9065 16.1311 26.844 16.1811 26.7815 16.2686H26.7877Z" fill="white"/>
<path d="M18.8623 12.7812L19.0061 12.1687L19.4561 12.275L19.4373 12.375L19.1061 12.3L19.0748 12.4375L19.3811 12.5062L19.3561 12.6125L19.0498 12.5375L19.0123 12.7062L19.3561 12.7875L19.3311 12.8875L18.8623 12.7812V12.7812Z" fill="#309E3A"/>
</svg>
