<svg width="22" height="22" viewBox="0 0 22 22" fill="none" xmlns="http://www.w3.org/2000/svg">
<path fill-rule="evenodd" clip-rule="evenodd" d="M5.3679 3.31594C6.59099 2.4987 8.02894 2.0625 9.49993 2.0625V2.75L9.49998 2.0625C11.4725 2.06263 13.3641 2.84625 14.7589 4.24101C16.1536 5.63577 16.9373 7.52743 16.9374 9.49992V9.49996C16.9374 10.971 16.5012 12.4089 15.684 13.632C14.8667 14.8551 13.7051 15.8084 12.3461 16.3713C10.9871 16.9342 9.49168 17.0815 8.04896 16.7945C6.60623 16.5075 5.281 15.7992 4.24085 14.759C3.20071 13.7189 2.49236 12.3937 2.20538 10.9509C1.91841 9.50821 2.06569 8.01279 2.62862 6.65377C3.19154 5.29475 4.14482 4.13318 5.3679 3.31594ZM9.49993 3.4375C11.1078 3.43761 12.6497 4.07637 13.7866 5.21328C14.9235 6.35019 15.5623 7.89213 15.5624 9.49996M9.49989 3.4375C8.30086 3.43751 7.12877 3.79307 6.13181 4.45921C5.13484 5.12536 4.3578 6.07219 3.89895 7.17996C3.4401 8.28773 3.32004 9.50669 3.55396 10.6827C3.78788 11.8587 4.36528 12.9389 5.21313 13.7868C6.06098 14.6346 7.1412 15.212 8.31721 15.4459C9.49321 15.6799 10.7122 15.5598 11.8199 15.1009C12.9277 14.6421 13.8745 13.8651 14.5407 12.8681C15.2068 11.8711 15.5624 10.699 15.5624 9.5" fill="url(#paint0_linear_904_11997)"/>
<path fill-rule="evenodd" clip-rule="evenodd" d="M14.0497 14.0498C14.3182 13.7813 14.7535 13.7813 15.022 14.0498L19.7361 18.7639C20.0046 19.0323 20.0046 19.4676 19.7361 19.7361C19.4676 20.0046 19.0323 20.0046 18.7638 19.7361L14.0497 15.022C13.7812 14.7535 13.7812 14.3182 14.0497 14.0498Z" fill="url(#paint1_linear_904_11997)"/>
<defs>
<linearGradient id="paint0_linear_904_11997" x1="16.5378" y1="2.73863" x2="-0.224028" y2="8.37079" gradientUnits="userSpaceOnUse">
<stop stop-color="#FDE48C"/>
<stop offset="1" stop-color="#F14784"/>
</linearGradient>
<linearGradient id="paint1_linear_904_11997" x1="19.7739" y1="14.1252" x2="12.9124" y2="16.4307" gradientUnits="userSpaceOnUse">
<stop stop-color="#FDE48C"/>
<stop offset="1" stop-color="#F14784"/>
</linearGradient>
</defs>
</svg>
