<svg width="34" height="34" viewBox="0 0 34 34" fill="none" xmlns="http://www.w3.org/2000/svg">
<mask id="mask0_242_10177" style="mask-type:alpha" maskUnits="userSpaceOnUse" x="0" y="0" width="34" height="34">
<circle cx="17" cy="17" r="16" stroke="#BDBDBD" stroke-width="2"/>
<g clip-path="url(#clip0_242_10177)">
<path d="M16.9999 25.5C16.7439 25.4997 16.494 25.4224 16.2827 25.2781C13.1513 23.1524 11.7955 21.6949 11.0476 20.7837C9.45385 18.8413 8.69084 16.8471 8.71236 14.6876C8.73746 12.2129 10.7229 10.2 13.1382 10.2C14.8945 10.2 16.1109 11.1893 16.8194 12.0133C16.8418 12.0391 16.8695 12.0599 16.9007 12.0741C16.9318 12.0883 16.9656 12.0956 16.9999 12.0956C17.0341 12.0956 17.0679 12.0883 17.099 12.0741C17.1302 12.0599 17.1579 12.0391 17.1803 12.0133C17.8888 11.1885 19.1052 10.2 20.8615 10.2C23.2768 10.2 25.2623 12.2129 25.2874 14.688C25.3089 16.8479 24.5451 18.8421 22.9521 20.7841C22.2042 21.6953 20.8484 23.1528 17.717 25.2785C17.5056 25.4226 17.2557 25.4998 16.9999 25.5V25.5Z" fill="#BDBDBD"/>
</g>
</mask>
<g mask="url(#mask0_242_10177)">
<circle cx="17" cy="17" r="16" stroke="url(#paint0_linear_242_10177)" stroke-width="2"/>
<g clip-path="url(#clip1_242_10177)">
<path d="M16.9999 25.5C16.7439 25.4997 16.494 25.4224 16.2827 25.2781C13.1513 23.1524 11.7955 21.6949 11.0476 20.7837C9.45385 18.8413 8.69084 16.8471 8.71236 14.6876C8.73746 12.2129 10.7229 10.2 13.1382 10.2C14.8945 10.2 16.1109 11.1893 16.8194 12.0133C16.8418 12.0391 16.8695 12.0599 16.9007 12.0741C16.9318 12.0883 16.9656 12.0956 16.9999 12.0956C17.0341 12.0956 17.0679 12.0883 17.099 12.0741C17.1302 12.0599 17.1579 12.0391 17.1803 12.0133C17.8888 11.1885 19.1052 10.2 20.8615 10.2C23.2768 10.2 25.2623 12.2129 25.2874 14.688C25.3089 16.8479 24.5451 18.8421 22.9521 20.7841C22.2042 21.6953 20.8484 23.1528 17.717 25.2785C17.5056 25.4226 17.2557 25.4998 16.9999 25.5V25.5Z" fill="url(#paint1_linear_242_10177)"/>
</g>
<rect x="9" y="9.85001" width="16" height="16" stroke="url(#paint2_linear_242_10177)"/>
</g>
<defs>
<linearGradient id="paint0_linear_242_10177" x1="33.0866" y1="1.54546" x2="-5.22631" y2="14.419" gradientUnits="userSpaceOnUse">
<stop stop-color="#C28CDE"/>
<stop offset="1" stop-color="#884ACC"/>
</linearGradient>
<linearGradient id="paint1_linear_242_10177" x1="24.8425" y1="10.8955" x2="6.48747" y2="17.5773" gradientUnits="userSpaceOnUse">
<stop stop-color="#C28CDE"/>
<stop offset="1" stop-color="#884ACC"/>
</linearGradient>
<linearGradient id="paint2_linear_242_10177" x1="25.0433" y1="10.1227" x2="5.88685" y2="16.5595" gradientUnits="userSpaceOnUse">
<stop stop-color="#C28CDE"/>
<stop offset="1" stop-color="#884ACC"/>
</linearGradient>
<clipPath id="clip0_242_10177">
<rect width="17" height="17" fill="white" transform="translate(8.5 9.35001)"/>
</clipPath>
<clipPath id="clip1_242_10177">
<rect x="8.5" y="9.35001" width="17" height="17" fill="white"/>
</clipPath>
</defs>
</svg>
