<svg width="293" height="670" viewBox="0 0 293 670" fill="none" xmlns="http://www.w3.org/2000/svg">
<path opacity="0.3" fill-rule="evenodd" clip-rule="evenodd" d="M105.118 253.335C83.4762 272.301 69.0906 200.722 40.4653 197.77C18.4606 195.501 11.1999 231.035 -8.20972 241.648C-41.6764 259.946 -118.289 244.207 -113.723 282.075C-108.082 328.854 5.74191 307.66 5.43118 354.777C4.9975 420.535 -102.894 443.135 -115.211 507.731C-125.607 562.248 -107.406 650.256 -52.7344 659.809C11.932 671.107 39.4753 545.602 105.118 546.227C171.757 546.861 210.844 702.453 264.425 662.828C324.29 618.556 254.922 516.883 244.482 443.163C240.33 413.843 216.634 387.786 221.333 358.549C225.578 332.144 261.435 320.609 268.336 294.771C275.995 266.094 262.206 236.764 261.786 207.085C260.807 137.756 330.694 -17.9333 264.195 1.69766C167.813 30.1502 180.696 187.1 105.118 253.335Z" fill="#D9A38A"/>
</svg>
