<svg width="293" height="670" viewBox="0 0 293 670" fill="none" xmlns="http://www.w3.org/2000/svg">
<path fill-rule="evenodd" clip-rule="evenodd" d="M69.8114 253.335C91.4535 272.301 105.839 200.722 134.464 197.77C156.469 195.501 163.73 231.035 183.139 241.648C216.606 259.946 293.219 244.207 288.653 282.075C283.012 328.854 169.188 307.66 169.499 354.777C169.932 420.535 277.823 443.135 290.141 507.731C300.537 562.248 282.335 650.256 227.664 659.809C162.998 671.107 135.454 545.602 69.8114 546.227C3.17244 546.861 -35.9139 702.453 -89.4955 662.828C-149.36 618.556 -79.9927 516.883 -69.5524 443.163C-65.4001 413.843 -41.7038 387.786 -46.4036 358.549C-50.6482 332.144 -86.5052 320.609 -93.4062 294.771C-101.065 266.094 -87.2761 236.764 -86.8567 207.085C-85.8771 137.756 -155.765 -17.9333 -89.2653 1.69766C7.11654 30.1502 -5.76616 187.1 69.8114 253.335Z" fill="#FFF2EC"/>
</svg>
