<svg width="381" height="405" viewBox="0 0 381 405" fill="none" xmlns="http://www.w3.org/2000/svg">
<path fill-rule="evenodd" clip-rule="evenodd" d="M23.5745 0.0185995C68.1583 0.961103 109.246 34.5129 136.256 69.9965C163.127 105.298 135.297 173.705 173.259 196.665C223.858 227.268 299.758 166.216 349.138 198.75C386.177 223.153 370.15 284.211 373.291 328.455C376.396 372.189 390.489 421.351 367.595 458.743C343.218 498.555 282.688 498.736 249.149 531.207C221.325 558.145 226.686 616.758 190.401 630.294C150.601 645.142 109.861 591.282 68.0468 598.767C26.679 606.172 7.22417 676.921 -34.3109 670.521C-75.0541 664.242 -82.6491 605.033 -107.026 571.788C-124.845 547.488 -142.229 523.821 -159.821 499.355C-177.102 475.322 -191.462 449.986 -210.752 427.533C-240.392 393.03 -307.008 375.858 -304.954 330.419C-302.961 286.341 -233.865 279.396 -202.646 248.217C-180.497 226.097 -163.821 199.905 -147.516 173.184C-126.169 138.2 -119.772 94.346 -90.968 65.193C-59.8283 33.6756 -20.7217 -0.917822 23.5745 0.0185995Z" fill="#FFF2EC"/>
</svg>
