<svg width="531" height="675" viewBox="0 0 531 675" fill="none" xmlns="http://www.w3.org/2000/svg">
<path fill-rule="evenodd" clip-rule="evenodd" d="M349.706 13.6939C400.711 14.4316 451.797 -2.73513 500.803 11.4271C552.724 26.4319 602.802 54.2188 636.406 96.5479C669.994 138.856 676.426 195.204 688.499 247.857C700.581 300.548 720.107 354.279 707.56 406.862C695.038 459.343 657.757 502.442 618.837 539.809C582.338 574.851 535.282 593.924 489.747 615.984C444.128 638.085 399.939 663.394 349.706 670.193C296.132 677.444 239.602 678.347 190.135 656.536C140.247 634.54 103.922 590.9 71.1111 547.356C38.8107 504.489 5.61395 458.316 0.514206 404.885C-4.47732 352.588 28.1456 305.556 43.2293 255.233C57.3972 207.966 61.2361 157.798 87.1609 115.812C114.514 71.5132 147.967 25.8983 196.489 7.02558C244.737 -11.7409 297.941 12.9452 349.706 13.6939Z" fill="#FFF2EC"/>
</svg>
