<svg width="300" height="515" viewBox="0 0 300 515" fill="none" xmlns="http://www.w3.org/2000/svg">
<path opacity="0.3" fill-rule="evenodd" clip-rule="evenodd" d="M266.846 10.4508C305.767 11.0138 344.749 -2.08738 382.143 8.72087C421.762 20.1722 459.974 41.3785 485.616 73.6831C511.245 105.971 516.154 148.975 525.366 189.158C534.585 229.371 549.485 270.378 539.911 310.507C530.355 350.56 501.908 383.452 472.21 411.969C444.359 438.713 408.452 453.268 373.707 470.104C338.896 486.971 305.177 506.286 266.846 511.475C225.966 517.009 182.831 517.698 145.084 501.053C107.017 484.266 79.2986 450.961 54.2621 417.729C29.6149 385.014 4.28378 349.776 0.39237 308.998C-3.41646 269.087 21.4768 233.193 32.9866 194.788C43.7975 158.714 46.7268 120.427 66.509 88.3847C87.3808 54.5772 112.908 19.7649 149.933 5.36176C186.749 -8.96036 227.347 9.87944 266.846 10.4508Z" fill="#D9A38A"/>
</svg>
