<svg width="260" height="642" viewBox="0 0 260 642" fill="none" xmlns="http://www.w3.org/2000/svg">
<path fill-rule="evenodd" clip-rule="evenodd" d="M187.811 225.335C209.454 244.301 223.839 172.722 252.464 169.77C274.469 167.501 281.73 203.035 301.139 213.648C334.606 231.946 411.219 216.207 406.653 254.075C401.012 300.854 287.188 279.66 287.499 326.777C287.932 392.535 395.823 415.135 408.141 479.731C418.537 534.248 400.335 622.256 345.664 631.809C280.998 643.107 253.454 517.602 187.811 518.227C121.172 518.861 82.0861 674.453 28.5045 634.828C-31.3599 590.556 38.0073 488.883 48.4476 415.163C52.5999 385.843 76.2962 359.786 71.5964 330.549C67.3518 304.144 31.4948 292.609 24.5938 266.771C16.9347 238.094 30.7239 208.764 31.1433 179.085C32.1229 109.756 -37.7647 -45.9333 28.7347 -26.3023C125.117 2.15017 112.234 159.1 187.811 225.335Z" fill="#DFCAF4"/>
</svg>
