<svg width="286" height="671" viewBox="0 0 286 671" fill="none" xmlns="http://www.w3.org/2000/svg">
<path fill-rule="evenodd" clip-rule="evenodd" d="M-71.4255 0.0185995C-26.8417 0.961103 14.2463 34.5129 41.256 69.9965C68.1273 105.298 40.2972 173.705 78.2592 196.665C128.858 227.268 204.758 166.216 254.138 198.75C291.177 223.153 275.15 284.211 278.291 328.455C281.396 372.189 295.489 421.351 272.595 458.743C248.218 498.555 187.688 498.736 154.149 531.207C126.325 558.145 131.686 616.758 95.4005 630.294C55.6013 645.142 14.8605 591.282 -26.9532 598.767C-68.321 606.172 -87.7758 676.921 -129.311 670.521C-170.054 664.242 -177.649 605.033 -202.026 571.788C-219.845 547.488 -237.229 523.821 -254.821 499.355C-272.102 475.322 -286.462 449.986 -305.752 427.533C-335.392 393.03 -402.008 375.858 -399.954 330.419C-397.961 286.341 -328.865 279.396 -297.646 248.217C-275.497 226.097 -258.821 199.905 -242.516 173.184C-221.169 138.2 -214.772 94.346 -185.968 65.193C-154.828 33.6757 -115.722 -0.917822 -71.4255 0.0185995Z" fill="#DFCAF4"/>
</svg>
